<?xml version="1.0" standalone="no"?>
<!DOCTYPE svg PUBLIC "-//W3C//DTD SVG 20010904//EN"
 "http://www.w3.org/TR/2001/REC-SVG-20010904/DTD/svg10.dtd">
<svg version="1.0" xmlns="http://www.w3.org/2000/svg"
 width="500.000000pt" height="500.000000pt" viewBox="0 0 500.000000 500.000000"
 preserveAspectRatio="xMidYMid meet">
<metadata>
Created by potrace 1.11, written by Peter Selinger 2001-2013
</metadata>
<g transform="translate(0.000000,500.000000) scale(0.100000,-0.100000)"
fill="#000000" stroke="none">
<path d="M0 2500 l0 -2500 2500 0 2500 0 0 2500 0 2500 -2500 0 -2500 0 0
-2500z m3386 1906 c81 -29 779 -417 817 -454 21 -20 52 -66 70 -102 l32 -65 0
-1255 0 -1255 -24 -65 c-55 -150 -171 -269 -301 -309 -64 -19 -2183 -311
-2261 -311 -42 0 -94 6 -115 14 -82 30 -779 417 -817 454 -21 20 -52 66 -70
102 l-32 65 -3 1224 c-1 806 1 1244 8 1280 32 172 180 343 330 382 25 6 518
78 1095 159 1075 152 1193 164 1271 136z"/>
<path d="M2150 4089 c-580 -82 -1075 -156 -1099 -165 -58 -22 -110 -70 -147
-136 l-29 -53 -8 -835 c-4 -459 -6 -1015 -5 -1235 3 -429 3 -431 56 -478 11
-10 185 -108 388 -217 292 -158 376 -200 406 -200 71 0 2183 300 2227 317 58
21 110 69 147 135 l29 53 6 665 c4 366 7 911 8 1211 1 589 -1 619 -52 667 -13
12 -165 99 -338 193 -435 237 -419 229 -481 228 -29 -1 -528 -68 -1108 -150z
m-355 -1098 c95 -42 154 -123 155 -209 l0 -43 -87 3 -87 3 -9 38 c-11 47 -38
65 -114 77 -76 12 -158 -2 -191 -33 -20 -18 -23 -29 -19 -62 9 -66 35 -79 230
-114 124 -23 179 -45 237 -97 58 -52 80 -103 80 -184 0 -82 -23 -133 -82 -185
-65 -57 -123 -76 -252 -83 -157 -7 -249 17 -329 88 -41 35 -75 110 -79 171
l-3 44 90 0 90 0 6 -37 c7 -45 32 -76 76 -94 43 -19 194 -18 238 0 43 18 69
67 62 113 -11 68 -46 87 -216 118 -194 35 -263 71 -307 161 -22 46 -26 64 -22
123 4 84 36 137 105 177 74 44 125 54 258 51 98 -3 129 -7 170 -26z m908 -10
c54 -27 99 -68 125 -115 13 -23 17 -55 17 -126 0 -85 -3 -100 -27 -141 -27
-46 -77 -87 -133 -110 -18 -7 -104 -15 -210 -18 l-180 -6 -5 -175 -5 -175 -90
0 -90 0 -3 435 c-1 239 0 441 3 448 4 11 58 13 277 10 264 -3 275 -4 321 -27z"/>
<path d="M2290 2740 l0 -111 165 3 c156 3 166 4 187 26 19 18 23 34 23 82 0
48 -4 64 -23 82 -21 22 -31 23 -187 26 l-165 3 0 -111z"/>
</g>
</svg>
