<?xml version="1.0" encoding="UTF-8"?>
<svg xmlns="http://www.w3.org/2000/svg" xmlns:xlink="http://www.w3.org/1999/xlink" version="1.2" >
<font id="Replica Bold">
<font-face  font-family="Replica" units-per-em="1000" ascent="790" descent="-210" font-style="normal" font-weight="400" font-stretch="normal" cap-height="700" x-height="500" underline-position="-140" underline-thickness="20" />
<missing-glyph  horiz-adv-x="660" d="M570 0 L90 0 L80 10 L80 690 L90 700 L570 700 L580 690 L580 10 L570 0 Z M110 40 L120 30 L540 30 L550 40 L550 660 L540 670 L120 670 L110 660 L110 40 Z " />
<glyph glyph-name="&amp;#x0;" d="" />
<glyph glyph-name="&amp;#xd;" unicode="&#xd;" d="" />
<glyph glyph-name="space" unicode="&#x20;" horiz-adv-x="260" d="" />
<glyph glyph-name="exclam" unicode="&#x21;" horiz-adv-x="400" d="M250 240 L240 230 L160 230 L150 240 L130 470 L130 690 L140 700 L260 700 L270 690 L270 470 L250 240 Z M270 0 L130 0 L120 10 L120 140 L130 150 L270 150 L280 140 L280 10 L270 0 Z " />
<glyph glyph-name="quotedbl" unicode="&#x22;" horiz-adv-x="540" d="M450 390 L330 390 L320 400 L320 690 L330 700 L450 700 L460 690 L460 400 L450 390 Z M210 390 L90 390 L80 400 L80 690 L90 700 L210 700 L220 690 L220 400 L210 390 Z " />
<glyph glyph-name="numbersign" unicode="&#x23;" horiz-adv-x="650" d="M560 200 L470 200 L460 190 L410 10 L400 0 L330 0 L320 10 L320 110 L340 190 L330 200 L240 200 L230 190 L180 10 L170 0 L100 0 L90 10 L90 110 L110 190 L100 200 L40 200 L30 210 L30 290 L40 300 L130 300 L140 310 L160 390 L150 400 L90 400 L80 410 L80 490 L90 500 L180 500 L190 510 L240 690 L250 700 L320 700 L330 690 L330 590 L310 510 L320 500 L410 500 L420 510 L470 690 L480 700 L550 700 L560 690 L560 590 L540 510 L550 500 L610 500 L620 490 L620 410 L610 400 L520 400 L510 390 L490 310 L500 300 L560 300 L570 290 L570 210 L560 200 Z M260 310 L270 300 L360 300 L370 310 L390 390 L380 400 L290 400 L280 390 L260 310 Z " />
<glyph glyph-name="dollar" unicode="&#x24;" horiz-adv-x="660" d="M620 200 Q620 163 606.5 128 Q593 93 565 65 Q537 37 493.5 17 Q450 -3 390 -10 L380 -20 L380 -80 L370 -90 L290 -90 L280 -80 L280 -20 L270 -10 Q157 5 98.5 67 Q40 129 40 220 L50 230 L170 230 L180 220 Q180 175 202.5 146.5 Q225 118 270 110 L280 120 L280 300 L270 310 Q221 321 180.5 337 Q140 353 111 377.5 Q82 402 66 436.5 Q50 471 50 520 Q50 565 69 599 Q88 633 119 656.5 Q150 680 189.5 693 Q229 706 270 710 L280 720 L280 780 L290 790 L370 790 L380 780 L380 720 L390 710 Q480 695 535 642.5 Q590 590 590 500 L580 490 L460 490 L450 500 Q450 538 435 555 Q420 572 390 580 L380 570 L380 430 L390 420 Q428 413 468.5 398.5 Q509 384 542.5 358.5 Q576 333 598 294.5 Q620 256 620 200 Z M480 200 Q480 245 454 264 Q428 283 390 290 L380 280 L380 120 L390 110 Q428 118 454 140 Q480 162 480 200 Z M190 520 Q190 483 215 465.5 Q240 448 270 440 L280 450 L280 580 L270 590 Q259 590 245 586 Q231 582 219 573.5 Q207 565 198.5 552 Q190 539 190 520 Z " />
<glyph glyph-name="percent" unicode="&#x25;" horiz-adv-x="940" d="M220 330 Q175 330 141.5 344 Q108 358 85.5 383.5 Q63 409 51.5 444 Q40 479 40 520 Q40 561 51.5 596 Q63 631 85.5 656.5 Q108 682 141.5 696 Q175 710 220 710 Q265 710 299 696 Q333 682 355.5 656.5 Q378 631 389 596 Q400 561 400 520 Q400 479 389 444 Q378 409 355.5 383.5 Q333 358 299 344 Q265 330 220 330 Z M170 520 Q170 475 183.5 457.5 Q197 440 220 440 Q243 440 256.5 457.5 Q270 475 270 520 Q270 565 256.5 582.5 Q243 600 220 600 Q197 600 183.5 582.5 Q170 565 170 520 Z M320 10 L310 0 L250 0 L240 10 L240 110 L620 690 L630 700 L690 700 L700 690 L700 590 L320 10 Z M720 -10 Q675 -10 641.5 4 Q608 18 585.5 43.5 Q563 69 551.5 104 Q540 139 540 180 Q540 221 551.5 256 Q563 291 585.5 316.5 Q608 342 641.5 356 Q675 370 720 370 Q765 370 799 356 Q833 342 855.5 316.5 Q878 291 889 256 Q900 221 900 180 Q900 139 889 104 Q878 69 855.5 43.5 Q833 18 799 4 Q765 -10 720 -10 Z M670 180 Q670 135 683.5 117.5 Q697 100 720 100 Q743 100 756.5 117.5 Q770 135 770 180 Q770 225 756.5 242.5 Q743 260 720 260 Q697 260 683.5 242.5 Q670 225 670 180 Z " />
<glyph glyph-name="ampersand" unicode="&#x26;" horiz-adv-x="760" d="M680 0 L630 0 L610 10 L560 60 L550 60 Q512 30 458.5 10 Q405 -10 330 -10 Q266 -10 219 7.5 Q172 25 141 54 Q110 83 95 121 Q80 159 80 200 Q80 245 92 277.5 Q104 310 122.5 333.5 Q141 357 164.5 373 Q188 389 210 400 L210 410 Q187 433 168.5 464 Q150 495 150 540 Q150 574 161.5 604.5 Q173 635 197.5 658.5 Q222 682 260 696 Q298 710 350 710 Q399 710 433 695 Q467 680 488.5 656.5 Q510 633 520 604.5 Q530 576 530 550 Q530 490 502.5 450 Q475 410 430 380 L430 370 L540 260 L550 260 Q565 290 567.5 317.5 Q570 345 570 390 L580 400 L690 400 L700 390 Q700 356 699 326 Q698 296 693.5 267.5 Q689 239 679 212.5 Q669 186 650 160 L650 150 L690 110 L690 10 L680 0 Z M400 540 Q400 570 381.5 580 Q363 590 340 590 Q310 590 295 576.5 Q280 563 280 540 Q280 517 293.5 500 Q307 483 330 460 L340 460 Q363 475 381.5 492.5 Q400 510 400 540 Z M460 160 L310 310 L300 310 Q255 287 237.5 262.5 Q220 238 220 200 Q220 162 248.5 136 Q277 110 330 110 Q383 110 414 122.5 Q445 135 460 150 L460 160 Z " />
<glyph glyph-name="quotesingle" unicode="&#x27;" horiz-adv-x="300" d="M210 390 L90 390 L80 400 L80 690 L90 700 L210 700 L220 690 L220 400 L210 390 Z " />
<glyph glyph-name="parenleft" unicode="&#x28;" horiz-adv-x="450" d="M80 250 Q80 303 82 340.5 Q84 378 91 408.5 Q98 439 112.5 466 Q127 493 152.5 524.5 Q178 556 216.5 595.5 Q255 635 310 690 L330 700 L360 700 L370 690 L370 590 Q318 538 288 505 Q258 472 243 439 Q228 406 224 363.5 Q220 321 220 250 Q220 179 224 136.5 Q228 94 243 61 Q258 28 288 -5 Q318 -38 370 -90 L370 -190 L360 -200 L330 -200 L310 -190 Q255 -135 216.5 -95.5 Q178 -56 152.5 -24.5 Q127 7 112.5 34 Q98 61 91 91.5 Q84 122 82 160 Q80 198 80 250 Z " />
<glyph glyph-name="parenright" unicode="&#x29;" horiz-adv-x="450" d="M370 250 Q370 198 368 160 Q366 122 359 91.5 Q352 61 337.5 34 Q323 7 297.5 -24.5 Q272 -56 233.5 -95.5 Q195 -135 140 -190 L120 -200 L90 -200 L80 -190 L80 -90 Q133 -38 163 -5 Q193 28 208 61 Q223 94 226.5 136.5 Q230 179 230 250 Q230 321 226.5 363.5 Q223 406 208 439 Q193 472 163 505 Q133 538 80 590 L80 690 L90 700 L120 700 L140 690 Q195 635 233.5 595.5 Q272 556 297.5 524.5 Q323 493 337.5 466 Q352 439 359 408.5 Q366 378 368 340.5 Q370 303 370 250 Z " />
<glyph glyph-name="asterisk" unicode="&#x2a;" horiz-adv-x="590" d="M290 270 L280 280 L280 440 L270 440 L160 330 L150 330 L140 340 L140 350 L250 460 L250 470 L90 470 L80 480 L80 490 L90 500 L250 500 L250 510 L140 620 L140 630 L150 640 L160 640 L270 530 L280 530 L280 690 L290 700 L300 700 L310 690 L310 530 L320 530 L430 640 L440 640 L450 630 L450 620 L340 510 L340 500 L500 500 L510 490 L510 480 L500 470 L340 470 L340 460 L450 350 L450 340 L440 330 L430 330 L320 440 L310 440 L310 280 L300 270 L290 270 Z " />
<glyph glyph-name="plus" unicode="&#x2b;" horiz-adv-x="620" d="M550 190 L380 190 L370 180 L370 10 L360 0 L260 0 L250 10 L250 180 L240 190 L70 190 L60 200 L60 300 L70 310 L240 310 L250 320 L250 490 L260 500 L360 500 L370 490 L370 320 L380 310 L550 310 L560 300 L560 200 L550 190 Z " />
<glyph glyph-name="comma" unicode="&#x2c;" horiz-adv-x="320" d="M230 -30 L150 -130 L130 -140 L70 -140 L70 -120 L130 -20 L130 -10 L120 0 L90 0 L80 10 L80 140 L90 150 L230 150 L240 140 L240 0 L230 -30 Z " />
<glyph glyph-name="hyphen" unicode="&#x2d;" horiz-adv-x="430" d="M360 200 L70 200 L60 210 L60 310 L70 320 L360 320 L370 310 L370 210 L360 200 Z " />
<glyph glyph-name="period" unicode="&#x2e;" horiz-adv-x="320" d="M230 0 L90 0 L80 10 L80 140 L90 150 L230 150 L240 140 L240 10 L230 0 Z " />
<glyph glyph-name="slash" unicode="&#x2f;" horiz-adv-x="510" d="M130 10 L120 0 L50 0 L40 10 L40 110 L380 690 L390 700 L460 700 L470 690 L470 590 L130 10 Z " />
<glyph glyph-name="zero" unicode="0" horiz-adv-x="600" d="M40 350 Q40 448 59.5 516 Q79 584 113.5 627.5 Q148 671 196 690.5 Q244 710 300 710 Q356 710 404 690.5 Q452 671 486.5 627.5 Q521 584 540.5 516 Q560 448 560 350 Q560 253 540.5 184.5 Q521 116 486.5 72.5 Q452 29 404 9.5 Q356 -10 300 -10 Q244 -10 196 9.5 Q148 29 113.5 72.5 Q79 116 59.5 184.5 Q40 253 40 350 Z M180 350 Q180 283 187.5 237 Q195 191 210 162.5 Q225 134 247.5 122 Q270 110 300 110 Q330 110 352.5 122 Q375 134 390 162.5 Q405 191 412.5 237 Q420 283 420 350 Q420 418 412.5 463.5 Q405 509 390 537.5 Q375 566 352.5 578 Q330 590 300 590 Q270 590 247.5 578 Q225 566 210 537.5 Q195 509 187.5 463.5 Q180 418 180 350 Z " />
<glyph glyph-name="one" unicode="1" horiz-adv-x="410" d="M200 0 L190 10 L190 520 L180 520 L100 440 L50 440 L40 450 L40 550 L180 690 L200 700 L320 700 L330 690 L330 10 L320 0 L200 0 Z " />
<glyph glyph-name="two" unicode="2" horiz-adv-x="570" d="M520 0 L50 0 L40 10 L40 120 L50 140 L230 290 Q275 328 302.5 355.5 Q330 383 345 405.5 Q360 428 365 448 Q370 468 370 490 Q370 535 347.5 562.5 Q325 590 280 590 Q220 590 200 562.5 Q180 535 180 490 L170 480 L50 480 L40 490 Q40 531 52 570.5 Q64 610 92.5 641 Q121 672 167 691 Q213 710 280 710 Q336 710 379 692.5 Q422 675 451 646 Q480 617 495 579 Q510 541 510 500 Q510 459 500.5 425.5 Q491 392 470 361 Q449 330 417 299 Q385 268 340 230 L220 130 L220 120 L520 120 L530 110 L530 10 L520 0 Z " />
<glyph glyph-name="three" unicode="3" horiz-adv-x="570" d="M530 230 Q530 181 513.5 137.5 Q497 94 464 61 Q431 28 382.5 9 Q334 -10 270 -10 Q210 -10 165 7 Q120 24 90 52.5 Q60 81 45 117 Q30 153 30 190 L40 200 L160 200 L170 190 Q170 160 193.5 135 Q217 110 270 110 Q330 110 360 143.5 Q390 177 390 230 Q390 290 362.5 320 Q335 350 290 350 Q275 350 264 347 Q253 344 245 340 Q236 336 230 330 L180 330 L170 340 L170 430 L310 570 L310 580 L70 580 L60 590 L60 690 L70 700 L480 700 L490 690 L490 590 L480 570 L350 450 L350 440 Q384 440 416 425.5 Q448 411 473.5 384 Q499 357 514.5 318 Q530 279 530 230 Z " />
<glyph glyph-name="four" unicode="4" horiz-adv-x="570" d="M480 0 L360 0 L350 10 L350 190 L340 200 L30 200 L20 210 L20 320 L30 340 L330 690 L350 700 L480 700 L490 690 L490 10 L480 0 Z M350 530 L340 530 L170 330 L170 320 L340 320 L350 330 L350 530 Z " />
<glyph glyph-name="five" unicode="5" horiz-adv-x="600" d="M550 250 Q550 130 489 60 Q428 -10 300 -10 Q188 -10 128 45 Q68 100 60 190 L70 200 L190 200 L200 190 Q208 145 231.5 127.5 Q255 110 300 110 Q353 110 381.5 137.5 Q410 165 410 240 Q410 293 386.5 326.5 Q363 360 310 360 Q280 360 251.5 349 Q223 338 200 300 L180 290 L80 300 L70 310 L90 690 L100 700 L510 700 L520 690 L520 590 L510 580 L230 580 L220 570 L210 430 L220 430 Q230 444 246 455 Q261 465 283.5 472.5 Q306 480 340 480 Q389 480 428 462.5 Q467 445 494 414 Q521 383 535.5 341 Q550 299 550 250 Z " />
<glyph glyph-name="six" unicode="6" horiz-adv-x="590" d="M310 590 Q273 590 251 572 Q229 554 217.5 528.5 Q206 503 203 476 Q200 449 200 430 L210 430 Q220 441 236 450 Q251 458 273.5 464 Q296 470 330 470 Q375 470 415 454 Q455 438 485 408 Q515 378 532.5 335.5 Q550 293 550 240 Q550 184 532 138 Q514 92 482.5 59 Q451 26 407 8 Q363 -10 310 -10 Q239 -10 189.5 12.5 Q140 35 109 80 Q78 125 64 192.5 Q50 260 50 350 Q50 433 65.5 499.5 Q81 566 112.5 612.5 Q144 659 193.5 684.5 Q243 710 310 710 Q416 710 474 662.5 Q532 615 540 540 L530 530 L410 530 L400 540 Q392 563 373.5 576.5 Q355 590 310 590 Z M410 230 Q410 283 386.5 316.5 Q363 350 310 350 Q250 350 225 316.5 Q200 283 200 230 Q200 177 225 143.5 Q250 110 310 110 Q355 110 382.5 143.5 Q410 177 410 230 Z " />
<glyph glyph-name="seven" unicode="7" horiz-adv-x="530" d="M220 10 L210 0 L130 0 L120 10 L120 110 L350 570 L350 580 L50 580 L40 590 L40 690 L50 700 L490 700 L500 690 L500 580 L220 10 Z " />
<glyph glyph-name="eight" unicode="8" horiz-adv-x="580" d="M180 210 Q180 191 186 173 Q192 155 205 141 Q218 127 239 118.5 Q260 110 290 110 Q320 110 341 118.5 Q362 127 375 141 Q388 155 394 173 Q400 191 400 210 Q400 255 371.5 282.5 Q343 310 290 310 Q237 310 208.5 282.5 Q180 255 180 210 Z M200 510 Q200 472 222.5 446 Q245 420 290 420 Q335 420 357.5 446 Q380 472 380 510 Q380 521 376 535 Q372 549 361.5 561 Q351 573 333.5 581.5 Q316 590 290 590 Q264 590 246.5 581.5 Q229 573 218.5 561 Q208 549 204 535 Q200 521 200 510 Z M40 210 Q40 244 48.5 270.5 Q57 297 70 316.5 Q83 336 99 349.5 Q115 363 130 370 L130 380 Q119 388 106.5 399.5 Q94 411 83.5 427.5 Q73 444 66.5 467 Q60 490 60 520 Q60 558 75 592 Q90 626 119 652.5 Q148 679 191 694.5 Q234 710 290 710 Q346 710 389 694.5 Q432 679 461 652.5 Q490 626 505 592 Q520 558 520 520 Q520 490 513.5 467 Q507 444 496.5 427.5 Q486 411 473.5 399.5 Q461 388 450 380 L450 370 Q465 363 481 349.5 Q497 336 510 316.5 Q523 297 531.5 270.5 Q540 244 540 210 Q540 169 525 129.5 Q510 90 479 59 Q448 28 401 9 Q354 -10 290 -10 Q226 -10 179 9 Q132 28 101 59 Q70 90 55 129.5 Q40 169 40 210 Z " />
<glyph glyph-name="nine" unicode="9" horiz-adv-x="590" d="M280 110 Q318 110 339.5 128 Q361 146 372.5 171.5 Q384 197 387 224 Q390 251 390 270 L380 270 Q368 259 350 250 Q334 242 312 236 Q290 230 260 230 Q215 230 175 248 Q135 266 105 297.5 Q75 329 57.5 373.5 Q40 418 40 470 Q40 526 58 570.5 Q76 615 109 646 Q142 677 188 693.5 Q234 710 290 710 Q354 710 401 686.5 Q448 663 479 619 Q510 575 525 512 Q540 449 540 370 Q540 276 526 205 Q512 134 481 86 Q450 38 400.5 14 Q351 -10 280 -10 Q175 -10 121.5 37.5 Q68 85 60 160 L70 170 L190 170 L200 160 Q208 137 225 123.5 Q242 110 280 110 Z M180 470 Q180 410 207.5 380 Q235 350 280 350 Q340 350 365 383.5 Q390 417 390 470 Q390 504 381.5 527 Q373 550 358 564 Q343 578 323 584 Q303 590 280 590 Q235 590 207.5 560 Q180 530 180 470 Z " />
<glyph glyph-name="colon" unicode="&#x3a;" horiz-adv-x="320" d="M230 350 L90 350 L80 360 L80 490 L90 500 L230 500 L240 490 L240 360 L230 350 Z M230 0 L90 0 L80 10 L80 140 L90 150 L230 150 L240 140 L240 10 L230 0 Z " />
<glyph glyph-name="semicolon" unicode="&#x3b;" horiz-adv-x="320" d="M230 350 L90 350 L80 360 L80 490 L90 500 L230 500 L240 490 L240 360 L230 350 Z M230 -30 L150 -130 L130 -140 L70 -140 L70 -120 L130 -20 L130 -10 L120 0 L90 0 L80 10 L80 140 L90 150 L230 150 L240 140 L240 0 L230 -30 Z " />
<glyph glyph-name="less" unicode="&#x3c;" horiz-adv-x="580" d="M80 310 L440 500 L490 500 L500 490 L500 400 L490 380 L240 260 L240 240 L490 120 L500 100 L500 10 L490 0 L440 0 L80 190 L70 210 L70 290 L80 310 Z " />
<glyph glyph-name="equal" unicode="&#x3d;" horiz-adv-x="600" d="M510 300 L90 300 L80 310 L80 410 L90 420 L510 420 L520 410 L520 310 L510 300 Z M510 80 L90 80 L80 90 L80 190 L90 200 L510 200 L520 190 L520 90 L510 80 Z " />
<glyph glyph-name="greater" unicode="&#x3e;" horiz-adv-x="580" d="M500 190 L140 0 L90 0 L80 10 L80 100 L90 120 L340 240 L340 260 L90 380 L80 400 L80 490 L90 500 L140 500 L500 310 L510 290 L510 210 L500 190 Z " />
<glyph glyph-name="question" unicode="&#x3f;" horiz-adv-x="640" d="M560 510 Q560 476 551.5 449.5 Q543 423 528 401.5 Q513 380 493 362.5 Q473 345 450 330 Q428 315 414 303 Q400 291 392.5 280 Q385 269 382.5 257 Q380 245 380 230 L370 220 L250 220 L240 230 Q240 283 262.5 321.5 Q285 360 330 390 Q375 420 397.5 446 Q420 472 420 510 Q420 540 396.5 565 Q373 590 320 590 Q267 590 243.5 565 Q220 540 220 480 L210 470 L90 470 L80 480 Q80 529 93.5 571 Q107 613 136 644 Q165 675 210.5 692.5 Q256 710 320 710 Q384 710 429.5 694 Q475 678 504 651 Q533 624 546.5 587.5 Q560 551 560 510 Z M380 0 L240 0 L230 10 L230 140 L240 150 L380 150 L390 140 L390 10 L380 0 Z " />
<glyph glyph-name="at" unicode="&#x40;" horiz-adv-x="940" d="M470 370 Q455 370 440.5 365.5 Q426 361 415 347.5 Q404 334 397 311 Q390 288 390 250 Q390 213 397 189.5 Q404 166 415 152.5 Q426 139 440.5 134.5 Q455 130 470 130 Q485 130 499.5 134.5 Q514 139 525 152.5 Q536 166 543 189.5 Q550 213 550 250 Q550 288 543 311 Q536 334 525 347.5 Q514 361 499.5 365.5 Q485 370 470 370 Z M560 460 L570 470 L660 470 L670 460 L670 160 Q670 130 682.5 120 Q695 110 710 110 Q725 110 734.5 116.5 Q744 123 750 139 Q756 155 758 182 Q760 209 760 250 Q760 318 743 374.5 Q726 431 690 472.5 Q654 514 599.5 537 Q545 560 470 560 Q399 560 344.5 534 Q290 508 253.5 465 Q217 422 198.5 366 Q180 310 180 250 Q180 186 198.5 129.5 Q217 73 253.5 31 Q290 -11 344.5 -35.5 Q399 -60 470 -60 Q523 -60 562.5 -52.5 Q602 -45 640 -30 L660 -30 L670 -40 L670 -120 Q632 -143 581 -156.5 Q530 -170 470 -170 Q376 -170 300.5 -138 Q225 -106 171.5 -50 Q118 6 89 83 Q60 160 60 250 Q60 344 90.5 421 Q121 498 175 553.5 Q229 609 304.5 639.5 Q380 670 470 670 Q564 670 639.5 641 Q715 612 768.5 557.5 Q822 503 851 425.5 Q880 348 880 250 Q880 123 831.5 66.5 Q783 10 700 10 Q655 10 625 28.5 Q595 47 580 70 L570 70 Q558 56 540 45 Q524 35 502 27.5 Q480 20 450 20 Q413 20 378.5 35 Q344 50 317.5 79 Q291 108 275.5 151 Q260 194 260 250 Q260 310 275.5 353.5 Q291 397 316.5 425 Q342 453 374 466.5 Q406 480 440 480 Q466 480 485 472 Q504 464 516 455 Q531 444 540 430 L550 430 L560 460 Z " />
<glyph glyph-name="A" unicode="A" horiz-adv-x="650" d="M620 0 L530 0 L520 10 L470 140 L450 150 L200 150 L180 140 L130 10 L120 0 L30 0 L20 10 L20 110 L250 690 L260 700 L390 700 L400 690 L630 110 L630 10 L620 0 Z M330 520 L320 520 L230 280 L240 270 L410 270 L420 280 L330 520 Z " />
<glyph glyph-name="B" unicode="B" horiz-adv-x="670" d="M630 190 Q630 138 613 101.5 Q596 65 567.5 42.5 Q539 20 503.5 10 Q468 0 430 0 L90 0 L80 10 L80 690 L90 700 L410 700 Q448 700 483.5 690 Q519 680 547.5 658.5 Q576 637 593 603 Q610 569 610 520 Q610 467 586.5 426 Q563 385 510 370 L510 360 Q570 345 600 301.5 Q630 258 630 190 Z M470 500 Q470 538 452.5 559 Q435 580 390 580 L230 580 L220 570 L220 430 L230 420 L390 420 Q435 420 452.5 445 Q470 470 470 500 Z M490 210 Q490 255 466.5 277.5 Q443 300 390 300 L230 300 L220 290 L220 130 L230 120 L390 120 Q443 120 466.5 142.5 Q490 165 490 210 Z " />
<glyph glyph-name="C" unicode="C" horiz-adv-x="710" d="M380 110 Q440 110 477.5 133.5 Q515 157 530 210 L540 220 L660 220 L670 210 Q655 104 578 47 Q501 -10 380 -10 Q298 -10 234.5 16.5 Q171 43 127.5 91 Q84 139 62 205 Q40 271 40 350 Q40 429 62 495 Q84 561 127.5 609 Q171 657 234.5 683.5 Q298 710 380 710 Q440 710 490 695.5 Q540 681 577.5 654 Q615 627 639 588 Q663 549 670 500 L660 490 L540 490 L530 500 Q500 590 380 590 Q328 590 290 572 Q252 554 227.5 522.5 Q203 491 191.5 447 Q180 403 180 350 Q180 298 191.5 253.5 Q203 209 227.5 177.5 Q252 146 290 128 Q328 110 380 110 Z " />
<glyph glyph-name="D" unicode="D" horiz-adv-x="690" d="M650 350 Q650 268 632 203 Q614 138 573.5 93 Q533 48 468.5 24 Q404 0 310 0 L90 0 L80 10 L80 690 L90 700 L310 700 Q404 700 468.5 676.5 Q533 653 573.5 608 Q614 563 632 498 Q650 433 650 350 Z M510 350 Q510 470 467.5 525 Q425 580 320 580 L230 580 L220 570 L220 130 L230 120 L320 120 Q425 120 467.5 175 Q510 230 510 350 Z " />
<glyph glyph-name="E" unicode="E" horiz-adv-x="630" d="M560 0 L90 0 L80 10 L80 690 L90 700 L560 700 L570 690 L570 590 L560 580 L230 580 L220 570 L220 430 L230 420 L540 420 L550 410 L550 310 L540 300 L230 300 L220 290 L220 130 L230 120 L560 120 L570 110 L570 10 L560 0 Z " />
<glyph glyph-name="F" unicode="F" horiz-adv-x="590" d="M540 580 L230 580 L220 570 L220 420 L230 410 L520 410 L530 400 L530 300 L520 290 L230 290 L220 280 L220 10 L210 0 L90 0 L80 10 L80 690 L90 700 L540 700 L550 690 L550 590 L540 580 Z " />
<glyph glyph-name="G" unicode="G" horiz-adv-x="740" d="M670 0 L580 0 L570 10 L560 60 L550 60 Q543 53 529 41 Q515 29 493.5 17.5 Q472 6 441.5 -2 Q411 -10 370 -10 Q295 -10 234 16.5 Q173 43 130 91 Q87 139 63.5 205 Q40 271 40 350 Q40 429 63.5 495 Q87 561 131 609 Q175 657 238 683.5 Q301 710 380 710 Q455 710 508.5 691.5 Q562 673 597.5 643 Q633 613 653 575.5 Q673 538 680 500 L670 490 L550 490 L540 500 Q533 515 522.5 531 Q512 547 494 560 Q476 573 448.5 581.5 Q421 590 380 590 Q331 590 294 572 Q257 554 231.5 522.5 Q206 491 193 447 Q180 403 180 350 Q180 298 193 253.5 Q206 209 231.5 177.5 Q257 146 294 128 Q331 110 380 110 Q463 110 501.5 150 Q540 190 540 250 L530 260 L360 260 L350 270 L350 370 L360 380 L670 380 L680 370 L680 10 L670 0 Z " />
<glyph glyph-name="H" unicode="H" horiz-adv-x="730" d="M640 0 L520 0 L510 10 L510 290 L500 300 L230 300 L220 290 L220 10 L210 0 L90 0 L80 10 L80 690 L90 700 L210 700 L220 690 L220 430 L230 420 L500 420 L510 430 L510 690 L520 700 L640 700 L650 690 L650 10 L640 0 Z " />
<glyph glyph-name="I" unicode="I" horiz-adv-x="300" d="M210 0 L90 0 L80 10 L80 690 L90 700 L210 700 L220 690 L220 10 L210 0 Z " />
<glyph glyph-name="J" unicode="J" horiz-adv-x="550" d="M470 220 Q470 100 407.5 45 Q345 -10 240 -10 Q180 -10 138 9 Q96 28 70 58 Q44 88 32 125.5 Q20 163 20 200 L20 210 L30 220 L150 220 L160 210 L160 200 Q160 162 177.5 136 Q195 110 240 110 Q259 110 275.5 114.5 Q292 119 304 130 Q316 141 323 160.5 Q330 180 330 210 L330 690 L340 700 L460 700 L470 690 L470 220 Z " />
<glyph glyph-name="K" unicode="K" horiz-adv-x="640" d="M610 0 L540 0 L520 10 L300 280 L290 280 L220 210 L220 10 L210 0 L90 0 L80 10 L80 690 L90 700 L210 700 L220 690 L220 400 L230 400 L520 690 L540 700 L590 700 L600 690 L600 590 L400 390 L400 380 L620 110 L620 10 L610 0 Z " />
<glyph glyph-name="L" unicode="L" horiz-adv-x="560" d="M540 0 L90 0 L80 10 L80 690 L90 700 L210 700 L220 690 L220 130 L230 120 L540 120 L550 110 L550 10 L540 0 Z " />
<glyph glyph-name="M" unicode="M" horiz-adv-x="910" d="M820 0 L700 0 L690 10 L690 400 L680 400 L520 10 L510 0 L400 0 L390 10 L230 400 L220 400 L220 10 L210 0 L90 0 L80 10 L80 690 L90 700 L240 700 L250 690 L450 200 L460 200 L660 690 L670 700 L820 700 L830 690 L830 10 L820 0 Z " />
<glyph glyph-name="N" unicode="N" horiz-adv-x="750" d="M90 700 L230 700 L250 690 L520 230 L530 230 L530 690 L540 700 L660 700 L670 690 L670 10 L660 0 L520 0 L500 10 L230 470 L220 470 L220 10 L210 0 L90 0 L80 10 L80 690 L90 700 Z " />
<glyph glyph-name="O" unicode="O" horiz-adv-x="760" d="M580 350 Q580 403 567 447 Q554 491 528.5 522.5 Q503 554 466 572 Q429 590 380 590 Q331 590 294 572 Q257 554 231.5 522.5 Q206 491 193 447 Q180 403 180 350 Q180 298 193 253.5 Q206 209 231.5 177.5 Q257 146 294 128 Q331 110 380 110 Q429 110 466 128 Q503 146 528.5 177.5 Q554 209 567 253.5 Q580 298 580 350 Z M720 350 Q720 271 696.5 205 Q673 139 629 91 Q585 43 522 16.5 Q459 -10 380 -10 Q301 -10 238 16.5 Q175 43 131 91 Q87 139 63.5 205 Q40 271 40 350 Q40 429 63.5 495 Q87 561 131 609 Q175 657 238 683.5 Q301 710 380 710 Q459 710 522 683.5 Q585 657 629 609 Q673 561 696.5 495 Q720 429 720 350 Z " />
<glyph glyph-name="P" unicode="P" horiz-adv-x="680" d="M660 490 Q660 438 642 398.5 Q624 359 592.5 332.5 Q561 306 517 293 Q473 280 420 280 L230 280 L220 270 L220 10 L210 0 L90 0 L80 10 L80 690 L90 700 L420 700 Q473 700 517 687 Q561 674 592.5 647.5 Q624 621 642 582 Q660 543 660 490 Z M520 490 Q520 543 492.5 561.5 Q465 580 420 580 L230 580 L220 570 L220 410 L230 400 L420 400 Q465 400 492.5 418.5 Q520 437 520 490 Z " />
<glyph glyph-name="Q" unicode="Q" horiz-adv-x="760" d="M40 350 Q40 429 62 495 Q84 561 127.5 609 Q171 657 234.5 683.5 Q298 710 380 710 Q463 710 526 683.5 Q589 657 632.5 609 Q676 561 698 495 Q720 429 720 350 Q720 282 707.5 236 Q695 190 680 160 L680 140 L710 110 L710 10 L700 0 L630 0 L590 40 L580 40 Q542 17 491 3.5 Q440 -10 380 -10 Q298 -10 234.5 16.5 Q171 43 127.5 91 Q84 139 62 205 Q40 271 40 350 Z M180 350 Q180 298 191.5 253.5 Q203 209 227.5 177.5 Q252 146 290 128 Q328 110 380 110 Q418 110 441.5 116 Q465 122 480 130 L480 150 L400 230 L300 230 L290 240 L290 330 L300 340 L470 340 L490 330 L560 260 L570 260 Q578 283 579 305 Q580 327 580 350 Q580 403 568.5 447 Q557 491 532.5 522.5 Q508 554 470.5 572 Q433 590 380 590 Q328 590 290 572 Q252 554 227.5 522.5 Q203 491 191.5 447 Q180 403 180 350 Z " />
<glyph glyph-name="R" unicode="R" horiz-adv-x="700" d="M660 490 Q660 449 648 415.5 Q636 382 615 356.5 Q594 331 567 314.5 Q540 298 510 290 L510 280 L640 110 L640 10 L630 0 L570 0 L550 10 L350 270 L330 280 L230 280 L220 270 L220 10 L210 0 L90 0 L80 10 L80 690 L90 700 L420 700 Q473 700 517 687 Q561 674 592.5 647.5 Q624 621 642 582 Q660 543 660 490 Z M520 490 Q520 543 492.5 561.5 Q465 580 420 580 L230 580 L220 570 L220 410 L230 400 L420 400 Q465 400 492.5 418.5 Q520 437 520 490 Z " />
<glyph glyph-name="S" unicode="S" horiz-adv-x="660" d="M620 200 Q620 159 604 121 Q588 83 553.5 54 Q519 25 464 7.5 Q409 -10 330 -10 Q255 -10 200.5 7.5 Q146 25 110 56 Q74 87 57 129 Q40 171 40 220 L50 230 L170 230 L180 220 Q180 168 215 139 Q250 110 340 110 Q408 110 444 132.5 Q480 155 480 200 Q480 226 471.5 244 Q463 262 442.5 274 Q422 286 387.5 294.5 Q353 303 300 310 Q248 318 202 332 Q156 346 122.5 370 Q89 394 69.5 431 Q50 468 50 520 Q50 558 65.5 592 Q81 626 114 652.5 Q147 679 198 694.5 Q249 710 320 710 Q391 710 442 694 Q493 678 526 650 Q559 622 574.5 583.5 Q590 545 590 500 L580 490 L460 490 L450 500 Q450 523 443.5 539.5 Q437 556 421 567.5 Q405 579 378 584.5 Q351 590 310 590 Q243 590 216.5 570 Q190 550 190 520 Q190 498 198.5 482 Q207 466 227.5 455 Q248 444 283 436 Q318 428 370 420 Q423 413 468.5 397 Q514 381 547.5 355 Q581 329 600.5 291 Q620 253 620 200 Z " />
<glyph glyph-name="T" unicode="T" horiz-adv-x="620" d="M590 580 L390 580 L380 570 L380 10 L370 0 L250 0 L240 10 L240 570 L230 580 L30 580 L20 590 L20 690 L30 700 L590 700 L600 690 L600 590 L590 580 Z " />
<glyph glyph-name="U" unicode="U" horiz-adv-x="720" d="M640 270 Q640 134 568 62 Q496 -10 360 -10 Q224 -10 152 62 Q80 134 80 270 L80 690 L90 700 L210 700 L220 690 L220 270 Q220 195 252.5 152.5 Q285 110 360 110 Q435 110 467.5 152.5 Q500 195 500 270 L500 690 L510 700 L630 700 L640 690 L640 270 Z " />
<glyph glyph-name="V" unicode="V" horiz-adv-x="650" d="M400 10 L390 0 L260 0 L250 10 L30 590 L30 690 L40 700 L130 700 L140 690 L320 200 L330 200 L510 690 L520 700 L610 700 L620 690 L620 590 L400 10 Z " />
<glyph glyph-name="W" unicode="W" horiz-adv-x="950" d="M540 700 L550 690 L680 230 L690 230 L790 690 L800 700 L900 700 L910 690 L910 590 L760 10 L750 0 L620 0 L610 10 L480 490 L470 490 L340 10 L330 0 L200 0 L190 10 L40 590 L40 690 L50 700 L150 700 L160 690 L260 230 L270 230 L400 690 L410 700 L540 700 Z " />
<glyph glyph-name="X" unicode="X" horiz-adv-x="670" d="M620 0 L550 0 L530 10 L340 260 L330 260 L140 10 L120 0 L50 0 L40 10 L40 110 L240 360 L240 370 L50 590 L50 690 L60 700 L130 700 L150 690 L330 470 L340 470 L520 690 L540 700 L610 700 L620 690 L620 590 L430 370 L430 360 L630 110 L630 10 L620 0 Z " />
<glyph glyph-name="Y" unicode="Y" horiz-adv-x="600" d="M370 260 L370 10 L360 0 L240 0 L230 10 L230 260 L30 590 L30 690 L40 700 L110 700 L130 690 L290 420 L310 420 L470 690 L490 700 L560 700 L570 690 L570 590 L370 260 Z " />
<glyph glyph-name="Z" unicode="Z" horiz-adv-x="620" d="M560 0 L60 0 L50 10 L50 120 L60 140 L380 570 L380 580 L70 580 L60 590 L60 690 L70 700 L540 700 L550 690 L550 580 L540 560 L220 130 L220 120 L560 120 L570 110 L570 10 L560 0 Z " />
<glyph glyph-name="bracketleft" unicode="&#x5b;" horiz-adv-x="410" d="M320 -200 L90 -200 L80 -190 L80 690 L90 700 L320 700 L330 690 L330 590 L320 580 L230 580 L220 570 L220 -70 L230 -80 L320 -80 L330 -90 L330 -190 L320 -200 Z " />
<glyph glyph-name="backslash" unicode="&#x5c;" horiz-adv-x="510" d="M40 590 L40 690 L50 700 L120 700 L130 690 L470 110 L470 10 L460 0 L390 0 L380 10 L40 590 Z " />
<glyph glyph-name="bracketright" unicode="&#x5d;" horiz-adv-x="410" d="M80 -190 L80 -90 L90 -80 L180 -80 L190 -70 L190 570 L180 580 L90 580 L80 590 L80 690 L90 700 L320 700 L330 690 L330 -190 L320 -200 L90 -200 L80 -190 Z " />
<glyph glyph-name="asciicircum" unicode="&#x5e;" horiz-adv-x="580" d="M500 230 L430 230 L410 240 L300 510 L280 510 L170 240 L150 230 L80 230 L70 240 L70 340 L230 690 L240 700 L340 700 L350 690 L510 340 L510 240 L500 230 Z " />
<glyph glyph-name="underscore" unicode="&#x5f;" horiz-adv-x="580" d="M530 -120 L50 -120 L40 -110 L40 -10 L50 0 L530 0 L540 -10 L540 -110 L530 -120 Z " />
<glyph glyph-name="grave" unicode="&#x60;" horiz-adv-x="500" d="M300 560 L210 560 L190 570 L80 670 L80 690 L90 700 L190 700 L210 690 L310 590 L310 570 L300 560 Z " />
<glyph glyph-name="a" unicode="a" horiz-adv-x="520" d="M460 0 L350 0 L340 10 L330 30 L320 30 Q308 19 291 10 Q276 2 256 -4 Q236 -10 210 -10 Q127 -10 78.5 32.5 Q30 75 30 150 Q30 206 53 239.5 Q76 273 110 291 Q144 309 182 314.5 Q220 320 250 320 Q265 320 278 318.5 Q291 317 300 315 Q311 313 320 310 L330 320 L330 330 Q330 349 327.5 360.5 Q325 372 317.5 378.5 Q310 385 296.5 387.5 Q283 390 260 390 Q237 390 217.5 386.5 Q198 383 190 360 L180 350 L60 350 L50 360 Q50 383 60.5 409 Q71 435 95 457.5 Q119 480 159.5 495 Q200 510 260 510 Q320 510 360.5 495 Q401 480 425 451 Q449 422 459.5 379 Q470 336 470 280 L470 10 L460 0 Z M320 210 Q314 213 305 215 Q297 217 286 218.5 Q275 220 260 220 Q170 220 170 160 Q170 137 186 123.5 Q202 110 240 110 Q278 110 304 130 Q330 150 330 180 L330 200 L320 210 Z " />
<glyph glyph-name="b" unicode="b" horiz-adv-x="590" d="M560 250 Q560 190 542.5 142 Q525 94 495 60 Q465 26 425 8 Q385 -10 340 -10 Q306 -10 281.5 -2 Q257 6 241 15 Q223 26 210 40 L200 40 L190 10 L180 0 L70 0 L60 10 L60 690 L70 700 L190 700 L200 690 L200 460 L210 460 Q223 474 241 485 Q258 495 282 502.5 Q306 510 340 510 Q385 510 425 492 Q465 474 495 440 Q525 406 542.5 358 Q560 310 560 250 Z M420 250 Q420 310 395 350 Q370 390 310 390 Q250 390 225 350 Q200 310 200 250 Q200 190 225 150 Q250 110 310 110 Q370 110 395 150 Q420 190 420 250 Z " />
<glyph glyph-name="c" unicode="c" horiz-adv-x="540" d="M170 250 Q170 182 198.5 146 Q227 110 280 110 Q318 110 340 123.5 Q362 137 370 160 L380 170 L500 170 L510 160 Q503 115 481.5 83 Q460 51 429 30 Q398 9 359.5 -0.5 Q321 -10 280 -10 Q224 -10 178 8 Q132 26 99 60 Q66 94 48 142 Q30 190 30 250 Q30 310 48 358 Q66 406 99 440 Q132 474 178 492 Q224 510 280 510 Q321 510 359.5 500.5 Q398 491 429 470 Q460 449 481.5 417 Q503 385 510 340 L500 330 L380 330 L370 340 Q362 363 340 376.5 Q318 390 280 390 Q227 390 198.5 354 Q170 318 170 250 Z " />
<glyph glyph-name="d" unicode="d" horiz-adv-x="590" d="M30 250 Q30 310 47.5 358 Q65 406 95 440 Q125 474 165 492 Q205 510 250 510 Q284 510 308.5 502 Q333 494 349 485 Q367 474 380 460 L390 460 L390 690 L400 700 L520 700 L530 690 L530 10 L520 0 L410 0 L400 10 L390 40 L380 40 Q367 26 349 15 Q332 5 308 -2.5 Q284 -10 250 -10 Q205 -10 165 8 Q125 26 95 60 Q65 94 47.5 142 Q30 190 30 250 Z M170 250 Q170 190 195 150 Q220 110 280 110 Q340 110 365 150 Q390 190 390 250 Q390 310 365 350 Q340 390 280 390 Q220 390 195 350 Q170 310 170 250 Z " />
<glyph glyph-name="e" unicode="e" horiz-adv-x="540" d="M510 210 L500 200 L190 200 L180 190 Q180 183 184.5 169.5 Q189 156 200 142.5 Q211 129 230.5 119.5 Q250 110 280 110 Q303 110 322.5 117.5 Q342 125 350 140 L360 150 L480 150 L490 140 Q486 118 474 91.5 Q462 65 437.5 42.5 Q413 20 374.5 5 Q336 -10 280 -10 Q216 -10 169 11 Q122 32 91 67.5 Q60 103 45 150.5 Q30 198 30 250 Q30 303 45 350 Q60 397 90 432.5 Q120 468 165 489 Q210 510 270 510 Q330 510 375 489 Q420 468 450 432.5 Q480 397 495 350 Q510 303 510 250 L510 210 Z M360 310 Q360 314 357 327 Q354 340 345 354 Q336 368 318 379 Q300 390 270 390 Q240 390 222 379 Q204 368 195 354 Q186 340 183 327 Q180 314 180 310 L190 300 L350 300 L360 310 Z " />
<glyph glyph-name="f" unicode="f" horiz-adv-x="410" d="M390 690 L390 590 L380 580 L290 580 Q260 580 260 550 L260 510 L270 500 L370 500 L380 490 L380 390 L370 380 L270 380 L260 370 L260 10 L250 0 L130 0 L120 10 L120 370 L110 380 L40 380 L30 390 L30 490 L40 500 L110 500 L120 510 L120 550 Q120 591 134 619.5 Q148 648 171.5 666 Q195 684 225.5 692 Q256 700 290 700 L380 700 L390 690 Z " />
<glyph glyph-name="g" unicode="g" horiz-adv-x="590" d="M530 50 Q530 -18 510.5 -67 Q491 -116 457.5 -147.5 Q424 -179 378.5 -194.5 Q333 -210 280 -210 Q189 -210 133.5 -169 Q78 -128 70 -60 L80 -50 L200 -50 L210 -60 Q218 -75 234 -82.5 Q250 -90 280 -90 Q333 -90 361.5 -59 Q390 -28 390 40 L380 40 Q367 26 349 15 Q332 5 308 -2.5 Q284 -10 250 -10 Q205 -10 165 8 Q125 26 95 60 Q65 94 47.5 142 Q30 190 30 250 Q30 310 47.5 358 Q65 406 95 440 Q125 474 165 492 Q205 510 250 510 Q284 510 308.5 502 Q333 494 349 485 Q367 474 380 460 L390 460 L400 490 L410 500 L520 500 L530 490 L530 50 Z M170 250 Q170 190 195 150 Q220 110 280 110 Q340 110 365 150 Q390 190 390 250 Q390 310 365 350 Q340 390 280 390 Q220 390 195 350 Q170 310 170 250 Z " />
<glyph glyph-name="h" unicode="h" horiz-adv-x="590" d="M520 0 L400 0 L390 10 L390 300 Q390 338 372.5 364 Q355 390 310 390 Q257 390 228.5 359 Q200 328 200 260 L200 10 L190 0 L70 0 L60 10 L60 690 L70 700 L190 700 L200 690 L200 460 L210 460 Q225 475 256 492.5 Q287 510 340 510 Q431 510 480.5 455.5 Q530 401 530 310 L530 10 L520 0 Z " />
<glyph glyph-name="i" unicode="i" horiz-adv-x="260" d="M190 580 L70 580 L60 590 L60 690 L70 700 L190 700 L200 690 L200 590 L190 580 Z M190 0 L70 0 L60 10 L60 490 L70 500 L190 500 L200 490 L200 10 L190 0 Z " />
<glyph glyph-name="j" unicode="j" horiz-adv-x="260" d="M200 -20 Q200 -110 156.5 -145 Q113 -180 30 -180 L-30 -180 L-40 -170 L-40 -70 L-30 -60 L20 -60 Q43 -60 51.5 -51.5 Q60 -43 60 -20 L60 490 L70 500 L190 500 L200 490 L200 -20 Z M190 580 L70 580 L60 590 L60 690 L70 700 L190 700 L200 690 L200 590 L190 580 Z " />
<glyph glyph-name="k" unicode="k" horiz-adv-x="540" d="M500 0 L440 0 L420 10 L280 160 L270 160 L210 100 L200 80 L200 10 L190 0 L70 0 L60 10 L60 690 L70 700 L190 700 L200 690 L200 290 L210 290 L410 490 L430 500 L490 500 L500 490 L500 390 L380 270 L380 260 L510 110 L510 10 L500 0 Z " />
<glyph glyph-name="l" unicode="l" horiz-adv-x="260" d="M190 0 L70 0 L60 10 L60 690 L70 700 L190 700 L200 690 L200 10 L190 0 Z " />
<glyph glyph-name="m" unicode="m" horiz-adv-x="870" d="M810 0 L690 0 L680 10 L680 300 Q680 338 662.5 364 Q645 390 600 390 Q555 390 532.5 361.5 Q510 333 510 280 L510 10 L500 0 L380 0 L370 10 L370 300 Q370 338 352.5 364 Q335 390 290 390 Q245 390 222.5 361.5 Q200 333 200 280 L200 10 L190 0 L70 0 L60 10 L60 490 L70 500 L180 500 L190 490 L200 460 L210 460 Q220 474 236 485 Q251 495 273.5 502.5 Q296 510 330 510 Q360 510 383 503.5 Q406 497 422.5 486.5 Q439 476 451 463.5 Q463 451 470 440 L480 440 Q493 460 514 475 Q533 489 560.5 499.5 Q588 510 630 510 Q721 510 770.5 459 Q820 408 820 310 L820 10 L810 0 Z " />
<glyph glyph-name="n" unicode="n" horiz-adv-x="580" d="M520 0 L400 0 L390 10 L390 300 Q390 338 372.5 364 Q355 390 310 390 Q257 390 228.5 359 Q200 328 200 260 L200 10 L190 0 L70 0 L60 10 L60 490 L70 500 L180 500 L190 490 L200 460 L210 460 Q225 475 256 492.5 Q287 510 340 510 Q431 510 480.5 455.5 Q530 401 530 310 L530 10 L520 0 Z " />
<glyph glyph-name="o" unicode="o" horiz-adv-x="560" d="M530 250 Q530 190 512 142 Q494 94 461 60 Q428 26 382 8 Q336 -10 280 -10 Q224 -10 178 8 Q132 26 99 60 Q66 94 48 142 Q30 190 30 250 Q30 310 48 358 Q66 406 99 440 Q132 474 178 492 Q224 510 280 510 Q336 510 382 492 Q428 474 461 440 Q494 406 512 358 Q530 310 530 250 Z M390 250 Q390 318 361.5 354 Q333 390 280 390 Q227 390 198.5 354 Q170 318 170 250 Q170 182 198.5 146 Q227 110 280 110 Q333 110 361.5 146 Q390 182 390 250 Z " />
<glyph glyph-name="p" unicode="p" horiz-adv-x="590" d="M560 250 Q560 190 542.5 142 Q525 94 495 60 Q465 26 425 8 Q385 -10 340 -10 Q306 -10 281.5 -2 Q257 6 241 15 Q223 26 210 40 L200 40 L200 -190 L190 -200 L70 -200 L60 -190 L60 490 L70 500 L180 500 L190 490 L200 460 L210 460 Q223 474 241 485 Q258 495 282 502.5 Q306 510 340 510 Q385 510 425 492 Q465 474 495 440 Q525 406 542.5 358 Q560 310 560 250 Z M420 250 Q420 310 395 350 Q370 390 310 390 Q250 390 225 350 Q200 310 200 250 Q200 190 225 150 Q250 110 310 110 Q370 110 395 150 Q420 190 420 250 Z " />
<glyph glyph-name="q" unicode="q" horiz-adv-x="590" d="M30 250 Q30 310 47.5 358 Q65 406 95 440 Q125 474 165 492 Q205 510 250 510 Q284 510 308.5 502 Q333 494 349 485 Q367 474 380 460 L390 460 L400 490 L410 500 L520 500 L530 490 L530 -190 L520 -200 L400 -200 L390 -190 L390 40 L380 40 Q367 26 349 15 Q332 5 308 -2.5 Q284 -10 250 -10 Q205 -10 165 8 Q125 26 95 60 Q65 94 47.5 142 Q30 190 30 250 Z M170 250 Q170 190 195 150 Q220 110 280 110 Q340 110 365 150 Q390 190 390 250 Q390 310 365 350 Q340 390 280 390 Q220 390 195 350 Q170 310 170 250 Z " />
<glyph glyph-name="r" unicode="r" horiz-adv-x="410" d="M380 380 L310 380 Q250 380 225 349 Q200 318 200 250 L200 10 L190 0 L70 0 L60 10 L60 490 L70 500 L180 500 L190 490 L200 460 L210 460 Q217 471 231 480 Q244 488 265 494 Q286 500 320 500 L380 500 L390 490 L390 390 L380 380 Z " />
<glyph glyph-name="s" unicode="s" horiz-adv-x="500" d="M470 150 Q470 120 458 91.5 Q446 63 420 40.5 Q394 18 352 4 Q310 -10 250 -10 Q144 -10 87 37.5 Q30 85 30 160 L40 170 L160 170 L170 160 Q170 130 191 120 Q212 110 250 110 Q288 110 309 118.5 Q330 127 330 150 Q330 165 323 173.5 Q316 182 302.5 186.5 Q289 191 271 193.5 Q253 196 230 200 Q208 204 175.5 212.5 Q143 221 113 239 Q83 257 61.5 286 Q40 315 40 360 Q40 390 51.5 417 Q63 444 88.5 465 Q114 486 154 498 Q194 510 250 510 Q295 510 333.5 500.5 Q372 491 400 472.5 Q428 454 444 426 Q460 398 460 360 L450 350 L330 350 L320 360 Q320 375 304 382.5 Q288 390 250 390 Q212 390 196 381.5 Q180 373 180 350 Q180 335 190.5 326.5 Q201 318 217.5 313.5 Q234 309 256 306.5 Q278 304 300 300 Q323 296 352 289 Q381 282 407.5 266 Q434 250 452 222.5 Q470 195 470 150 Z " />
<glyph glyph-name="t" unicode="t" horiz-adv-x="420" d="M250 150 Q250 120 280 120 L370 120 L380 110 L380 10 L370 0 L280 0 Q246 0 215.5 8 Q185 16 161.5 34 Q138 52 124 80.5 Q110 109 110 150 L110 370 L100 380 L30 380 L20 390 L20 490 L30 500 L100 500 L110 510 L110 600 L120 610 L240 610 L250 600 L250 510 L260 500 L370 500 L380 490 L380 390 L370 380 L260 380 L250 370 L250 150 Z " />
<glyph glyph-name="u" unicode="u" horiz-adv-x="570" d="M60 500 L180 500 L190 490 L190 200 Q190 162 207.5 136 Q225 110 270 110 Q323 110 346.5 143.5 Q370 177 370 230 L370 490 L380 500 L500 500 L510 490 L510 10 L500 0 L390 0 L380 10 L370 40 L360 40 Q350 26 334 15 Q319 5 296.5 -2.5 Q274 -10 240 -10 Q149 -10 99.5 44.5 Q50 99 50 190 L50 490 L60 500 Z " />
<glyph glyph-name="v" unicode="v" horiz-adv-x="530" d="M330 10 L320 0 L210 0 L200 10 L30 390 L30 490 L40 500 L130 500 L140 490 L260 180 L270 180 L390 490 L400 500 L490 500 L500 490 L500 390 L330 10 Z " />
<glyph glyph-name="w" unicode="w" horiz-adv-x="790" d="M630 10 L620 0 L490 0 L480 10 L400 310 L390 310 L310 10 L300 0 L170 0 L160 10 L40 390 L40 490 L50 500 L140 500 L150 490 L230 210 L240 210 L320 490 L330 500 L460 500 L470 490 L550 210 L560 210 L640 490 L650 500 L740 500 L750 490 L750 390 L630 10 Z " />
<glyph glyph-name="x" unicode="x" horiz-adv-x="510" d="M470 0 L410 0 L390 10 L260 170 L250 170 L120 10 L100 0 L40 0 L30 10 L30 110 L150 250 L150 260 L40 390 L40 490 L50 500 L110 500 L130 490 L250 340 L260 340 L380 490 L400 500 L460 500 L470 490 L470 390 L360 260 L360 250 L480 110 L480 10 L470 0 Z " />
<glyph glyph-name="y" unicode="y" horiz-adv-x="530" d="M340 -10 Q325 -48 308.5 -77.5 Q292 -107 267.5 -127.5 Q243 -148 208 -159 Q173 -170 120 -170 L70 -170 L60 -160 L60 -60 L70 -50 L120 -50 Q158 -50 170.5 -41.5 Q183 -33 190 -10 L190 0 L30 390 L30 490 L40 500 L130 500 L140 490 L260 150 L270 150 L390 490 L400 500 L490 500 L500 490 L500 390 L340 -10 Z " />
<glyph glyph-name="z" unicode="z" horiz-adv-x="520" d="M470 0 L50 0 L40 10 L40 120 L50 140 L280 370 L280 380 L60 380 L50 390 L50 490 L60 500 L460 500 L470 490 L470 380 L460 360 L230 130 L230 120 L470 120 L480 110 L480 10 L470 0 Z " />
<glyph glyph-name="braceleft" unicode="&#x7b;" horiz-adv-x="470" d="M240 240 Q278 232 294 202.5 Q310 173 310 120 L310 -40 Q310 -63 318.5 -71.5 Q327 -80 350 -80 L380 -80 L390 -90 L390 -190 L380 -200 L320 -200 Q294 -200 267 -193.5 Q240 -187 218.5 -170 Q197 -153 183.5 -124 Q170 -95 170 -50 L170 120 Q170 165 149 182.5 Q128 200 90 200 L80 210 L80 290 L90 300 Q128 300 149 317.5 Q170 335 170 380 L170 550 Q170 595 183.5 624 Q197 653 218.5 670 Q240 687 267 693.5 Q294 700 320 700 L380 700 L390 690 L390 590 L380 580 L350 580 Q327 580 318.5 571.5 Q310 563 310 540 L310 380 Q310 327 294 297.5 Q278 268 240 260 L240 240 Z " />
<glyph glyph-name="bar" unicode="&#x7c;" horiz-adv-x="380" d="M250 -200 L130 -200 L120 -190 L120 690 L130 700 L250 700 L260 690 L260 -190 L250 -200 Z " />
<glyph glyph-name="braceright" unicode="&#x7d;" horiz-adv-x="470" d="M230 260 Q192 268 176 297.5 Q160 327 160 380 L160 540 Q160 563 151.5 571.5 Q143 580 120 580 L90 580 L80 590 L80 690 L90 700 L150 700 Q176 700 203 693.5 Q230 687 251.5 670 Q273 653 286.5 624 Q300 595 300 550 L300 380 Q300 335 321 317.5 Q342 300 380 300 L390 290 L390 210 L380 200 Q342 200 321 182.5 Q300 165 300 120 L300 -50 Q300 -95 286.5 -124 Q273 -153 251.5 -170 Q230 -187 203 -193.5 Q176 -200 150 -200 L90 -200 L80 -190 L80 -90 L90 -80 L120 -80 Q143 -80 151.5 -71.5 Q160 -63 160 -40 L160 120 Q160 173 176 202.5 Q192 232 230 240 L230 260 Z " />
<glyph glyph-name="asciitilde" unicode="&#x7e;" horiz-adv-x="660" d="M60 180 Q60 218 69.5 250.5 Q79 283 100 307.5 Q121 332 153 346 Q185 360 230 360 Q271 360 302 346 Q333 332 357.5 315 Q382 298 401.5 284 Q421 270 440 270 Q455 270 467.5 280 Q480 290 480 320 L490 330 L590 330 L600 320 Q600 283 589 250 Q578 217 556.5 192.5 Q535 168 503 154 Q471 140 430 140 Q389 140 358 154 Q327 168 302.5 185 Q278 202 258.5 216 Q239 230 220 230 Q205 230 192.5 220 Q180 210 180 180 L170 170 L70 170 L60 180 Z " />
<glyph glyph-name="uni00A0" unicode="&#xa0;" horiz-adv-x="260" d="" />
<glyph glyph-name="exclamdown" unicode="&#xa1;" horiz-adv-x="400" d="M150 260 L160 270 L240 270 L250 260 L270 30 L270 -190 L260 -200 L140 -200 L130 -190 L130 30 L150 260 Z M130 500 L270 500 L280 490 L280 360 L270 350 L130 350 L120 360 L120 490 L130 500 Z " />
<glyph glyph-name="cent" unicode="&#xa2;" horiz-adv-x="540" d="M170 250 Q170 190 190 159 Q210 128 240 120 L250 130 L250 370 L240 380 Q210 372 190 341 Q170 310 170 250 Z M250 -20 L240 -10 Q195 -3 156.5 17.5 Q118 38 90 71 Q62 104 46 149 Q30 194 30 250 Q30 306 46 351 Q62 396 90 429 Q118 462 156.5 482.5 Q195 503 240 510 L250 520 L250 560 L260 570 L300 570 L310 560 L310 520 L320 510 Q350 506 382 494.5 Q414 483 441 462.5 Q468 442 487 411.5 Q506 381 510 340 L500 330 L380 330 L370 340 Q362 363 348.5 371.5 Q335 380 320 380 L310 370 L310 130 L320 120 Q335 120 348.5 128.5 Q362 137 370 160 L380 170 L500 170 L510 160 Q506 119 487 88.5 Q468 58 441 37.5 Q414 17 382 5.5 Q350 -6 320 -10 L310 -20 L310 -60 L300 -70 L260 -70 L250 -60 L250 -20 Z " />
<glyph glyph-name="sterling" unicode="&#xa3;" horiz-adv-x="640" d="M480 280 L270 280 L260 270 L260 210 Q260 172 247.5 155 Q235 138 220 130 L220 120 L600 120 L610 110 L610 10 L600 0 L40 0 L30 10 L30 110 L40 120 L50 120 Q88 120 104 142.5 Q120 165 120 210 L120 270 L110 280 L50 280 L40 290 L40 370 L50 380 L110 380 L120 390 L120 480 Q120 529 133.5 571 Q147 613 175 644 Q203 675 246.5 692.5 Q290 710 350 710 Q406 710 447.5 694 Q489 678 516 650 Q543 622 556.5 583.5 Q570 545 570 500 L560 490 L440 490 L430 500 Q430 553 409 571.5 Q388 590 350 590 Q305 590 282.5 565 Q260 540 260 480 L260 390 L270 380 L480 380 L490 370 L490 290 L480 280 Z " />
<glyph glyph-name="currency" unicode="&#xa4;" horiz-adv-x="680" d="M570 370 Q578 358 585 340 Q591 324 595.5 302 Q600 280 600 250 Q600 220 595.5 197.5 Q591 175 585 160 Q578 142 570 130 L570 120 L640 50 L640 40 L550 -50 L540 -50 L470 20 L460 20 Q448 12 430 5 Q414 -1 392 -5.5 Q370 -10 340 -10 Q310 -10 287.5 -5.5 Q265 -1 250 5 Q232 12 220 20 L210 20 L140 -50 L130 -50 L40 40 L40 50 L110 120 L110 130 Q102 142 95 160 Q89 176 84.5 198 Q80 220 80 250 Q80 280 84.5 302.5 Q89 325 95 340 Q102 358 110 370 L110 380 L40 450 L40 460 L130 550 L140 550 L210 480 L220 480 Q232 488 250 495 Q266 501 288 505.5 Q310 510 340 510 Q370 510 392.5 505.5 Q415 501 430 495 Q448 488 460 480 L470 480 L540 550 L550 550 L640 460 L640 450 L570 380 L570 370 Z M340 110 Q374 110 397 122 Q420 134 434 153.5 Q448 173 454 198.5 Q460 224 460 250 Q460 276 454 301.5 Q448 327 434 346.5 Q420 366 397 378 Q374 390 340 390 Q306 390 283 378 Q260 366 246 346.5 Q232 327 226 301.5 Q220 276 220 250 Q220 224 226 198.5 Q232 173 246 153.5 Q260 134 283 122 Q306 110 340 110 Z " />
<glyph glyph-name="yen" unicode="&#xa5;" horiz-adv-x="620" d="M380 10 L370 0 L250 0 L240 10 L240 110 L230 120 L110 120 L100 130 L100 210 L110 220 L230 220 L240 230 L220 270 L200 280 L80 280 L70 290 L70 370 L80 380 L150 380 L150 390 L40 590 L40 690 L50 700 L120 700 L140 690 L300 380 L320 380 L480 690 L500 700 L570 700 L580 690 L580 590 L470 390 L470 380 L540 380 L550 370 L550 290 L540 280 L420 280 L400 270 L380 230 L390 220 L510 220 L520 210 L520 130 L510 120 L390 120 L380 110 L380 10 Z " />
<glyph glyph-name="brokenbar" unicode="&#xa6;" horiz-adv-x="380" d="M250 410 L130 410 L120 420 L120 690 L130 700 L250 700 L260 690 L260 420 L250 410 Z M250 0 L130 0 L120 10 L120 280 L130 290 L250 290 L260 280 L260 10 L250 0 Z " />
<glyph glyph-name="section" unicode="&#xa7;" horiz-adv-x="660" d="M180 290 Q180 253 202 233.5 Q224 214 260 202.5 Q296 191 340.5 183 Q385 175 430 160 L440 160 Q463 168 471.5 182.5 Q480 197 480 220 Q480 250 458 268.5 Q436 287 400 300 Q364 313 319.5 324 Q275 335 230 350 L220 350 Q197 342 188.5 327.5 Q180 313 180 290 Z M530 90 Q553 75 571.5 45 Q590 15 590 -30 Q590 -113 529 -161.5 Q468 -210 340 -210 Q280 -210 229 -198.5 Q178 -187 140.5 -161.5 Q103 -136 81.5 -96 Q60 -56 60 0 L70 10 L190 10 L200 0 Q200 -45 232.5 -67.5 Q265 -90 340 -90 Q374 -90 395.5 -84.5 Q417 -79 429 -70 Q441 -61 445.5 -48 Q450 -35 450 -20 Q450 8 419.5 23.5 Q389 39 343.5 51.5 Q298 64 245 77.5 Q192 91 146.5 115.5 Q101 140 70.5 179 Q40 218 40 280 Q40 310 48.5 332.5 Q57 355 70 371 Q83 387 99 396.5 Q115 406 130 410 L130 420 Q107 435 88.5 465 Q70 495 70 540 Q70 615 136 662.5 Q202 710 330 710 Q386 710 434 697 Q482 684 516.5 657.5 Q551 631 570.5 592 Q590 553 590 500 L580 490 L460 490 L450 500 Q450 545 419 567.5 Q388 590 320 590 Q286 590 264.5 585 Q243 580 231 571.5 Q219 563 214.5 552 Q210 541 210 530 Q210 503 240.5 486 Q271 469 316.5 454.5 Q362 440 415 425 Q468 410 513.5 385.5 Q559 361 589.5 324.5 Q620 288 620 230 Q620 200 611.5 177.5 Q603 155 590 139 Q577 123 561 113.5 Q545 104 530 100 L530 90 Z " />
<glyph glyph-name="dieresis" unicode="&#xa8;" horiz-adv-x="560" d="M440 580 L330 580 L320 590 L320 690 L330 700 L440 700 L450 690 L450 590 L440 580 Z M230 580 L120 580 L110 590 L110 690 L120 700 L230 700 L240 690 L240 590 L230 580 Z " />
<glyph glyph-name="copyright" unicode="&#xa9;" horiz-adv-x="840" d="M60 350 Q60 425 88 490.5 Q116 556 165 605 Q214 654 279.5 682 Q345 710 420 710 Q495 710 560.5 682 Q626 654 675 605 Q724 556 752 490.5 Q780 425 780 350 Q780 275 752 209.5 Q724 144 675 95 Q626 46 560.5 18 Q495 -10 420 -10 Q345 -10 279.5 18 Q214 46 165 95 Q116 144 88 209.5 Q60 275 60 350 Z M340 350 Q340 297 361 273.5 Q382 250 420 250 Q443 250 462.5 260 Q482 270 490 300 L500 310 L580 310 L590 300 Q586 263 570.5 236 Q555 209 531.5 192.5 Q508 176 479 168 Q450 160 420 160 Q383 160 350 171.5 Q317 183 292.5 206.5 Q268 230 254 265.5 Q240 301 240 350 Q240 399 254 434.5 Q268 470 292.5 493.5 Q317 517 350 528.5 Q383 540 420 540 Q450 540 479 532 Q508 524 531.5 507.5 Q555 491 570.5 464.5 Q586 438 590 400 L580 390 L500 390 L490 400 Q482 430 462.5 440 Q443 450 420 450 Q382 450 361 426.5 Q340 403 340 350 Z M170 350 Q170 294 188 246 Q206 198 239 163.5 Q272 129 318 109.5 Q364 90 420 90 Q476 90 522 109.5 Q568 129 601 163.5 Q634 198 652 246 Q670 294 670 350 Q670 406 652 454 Q634 502 601 536.5 Q568 571 522 590.5 Q476 610 420 610 Q364 610 318 590.5 Q272 571 239 536.5 Q206 502 188 454 Q170 406 170 350 Z " />
<glyph glyph-name="ordfeminine" unicode="&#xaa;" horiz-adv-x="580" d="M250 330 Q220 330 189.5 341.5 Q159 353 135 376.5 Q111 400 95.5 435.5 Q80 471 80 520 Q80 569 95.5 604.5 Q111 640 135 663.5 Q159 687 189.5 698.5 Q220 710 250 710 Q269 710 283.5 705.5 Q298 701 309 695 Q321 688 330 680 L340 680 L340 690 L350 700 L450 700 L460 690 L460 480 Q460 465 466 457.5 Q472 450 480 450 L490 450 L500 440 L500 350 L490 340 L430 340 Q407 340 391 347.5 Q375 355 360 370 L350 370 Q341 359 326 350 Q313 342 294.5 336 Q276 330 250 330 Z M200 520 Q200 498 206.5 482.5 Q213 467 223.5 457.5 Q234 448 246.5 444 Q259 440 270 440 Q281 440 293.5 442.5 Q306 445 316.5 453.5 Q327 462 333.5 478 Q340 494 340 520 Q340 546 333.5 562 Q327 578 316.5 586.5 Q306 595 293.5 597.5 Q281 600 270 600 Q259 600 246.5 596 Q234 592 223.5 582.5 Q213 573 206.5 558 Q200 543 200 520 Z M480 260 L120 260 L110 270 L110 280 L120 290 L480 290 L490 280 L490 270 L480 260 Z " />
<glyph glyph-name="guillemotleft" unicode="&#xab;" horiz-adv-x="790" d="M390 30 L270 30 L250 40 L90 200 L80 220 L80 280 L90 300 L250 460 L270 470 L390 470 L400 460 L400 420 L230 260 L230 240 L400 80 L400 40 L390 30 Z M700 30 L580 30 L560 40 L400 200 L390 220 L390 280 L400 300 L560 460 L580 470 L700 470 L710 460 L710 420 L540 260 L540 240 L710 80 L710 40 L700 30 Z " />
<glyph glyph-name="logicalnot" unicode="&#xac;" horiz-adv-x="580" d="M490 80 L390 80 L380 90 L380 190 L370 200 L70 200 L60 210 L60 310 L70 320 L490 320 L500 310 L500 90 L490 80 Z " />
<glyph glyph-name="uni00AD" unicode="&#xad;" horiz-adv-x="430" d="M360 200 L70 200 L60 210 L60 310 L70 320 L360 320 L370 310 L370 210 L360 200 Z " />
<glyph glyph-name="registered" unicode="&#xae;" horiz-adv-x="840" d="M490 410 Q490 440 460 440 L380 440 L370 430 L370 390 L380 380 L460 380 Q490 380 490 410 Z M580 230 L580 180 L570 170 L520 170 L500 180 L430 280 L410 290 L380 290 L370 280 L370 180 L360 170 L280 170 L270 180 L270 520 L280 530 L460 530 Q520 530 555 500 Q590 470 590 410 Q590 372 575 348.5 Q560 325 530 310 L530 300 L580 230 Z M60 350 Q60 425 88 490.5 Q116 556 165 605 Q214 654 279.5 682 Q345 710 420 710 Q495 710 560.5 682 Q626 654 675 605 Q724 556 752 490.5 Q780 425 780 350 Q780 275 752 209.5 Q724 144 675 95 Q626 46 560.5 18 Q495 -10 420 -10 Q345 -10 279.5 18 Q214 46 165 95 Q116 144 88 209.5 Q60 275 60 350 Z M170 350 Q170 294 188 246 Q206 198 239 163.5 Q272 129 318 109.5 Q364 90 420 90 Q476 90 522 109.5 Q568 129 601 163.5 Q634 198 652 246 Q670 294 670 350 Q670 406 652 454 Q634 502 601 536.5 Q568 571 522 590.5 Q476 610 420 610 Q364 610 318 590.5 Q272 571 239 536.5 Q206 502 188 454 Q170 406 170 350 Z " />
<glyph glyph-name="macron" unicode="&#xaf;" horiz-adv-x="500" d="M420 570 L80 570 L70 580 L70 670 L80 680 L420 680 L430 670 L430 580 L420 570 Z " />
<glyph glyph-name="degree" unicode="&#xb0;" horiz-adv-x="580" d="M80 500 Q80 545 96 583.5 Q112 622 140 650 Q168 678 206.5 694 Q245 710 290 710 Q335 710 373.5 694 Q412 678 440 650 Q468 622 484 583.5 Q500 545 500 500 Q500 455 484 416.5 Q468 378 440 350 Q412 322 373.5 306 Q335 290 290 290 Q245 290 206.5 306 Q168 322 140 350 Q112 378 96 416.5 Q80 455 80 500 Z M210 500 Q210 455 231 432.5 Q252 410 290 410 Q328 410 349 432.5 Q370 455 370 500 Q370 545 349 567.5 Q328 590 290 590 Q252 590 231 567.5 Q210 545 210 500 Z " />
<glyph glyph-name="plusminus" unicode="&#xb1;" horiz-adv-x="580" d="M500 280 L360 280 L350 270 L350 190 L340 180 L240 180 L230 190 L230 270 L220 280 L80 280 L70 290 L70 390 L80 400 L220 400 L230 410 L230 490 L240 500 L340 500 L350 490 L350 410 L360 400 L500 400 L510 390 L510 290 L500 280 Z M500 0 L80 0 L70 10 L70 110 L80 120 L500 120 L510 110 L510 10 L500 0 Z " />
<glyph glyph-name="twosuperior" unicode="&#xb2;" horiz-adv-x="380" d="M330 340 L60 340 L50 350 L50 430 L60 450 L160 510 Q198 533 209 549 Q220 565 220 580 Q220 610 190 610 Q160 610 160 580 L150 570 L60 570 L50 580 Q50 640 86 675 Q122 710 190 710 Q258 710 294 675 Q330 640 330 580 Q330 554 321.5 534.5 Q313 515 298 500 Q283 485 263 473 Q243 461 220 450 L220 440 L330 440 L340 430 L340 350 L330 340 Z " />
<glyph glyph-name="threesuperior" unicode="&#xb3;" horiz-adv-x="370" d="M130 500 L130 560 L160 590 L160 600 L60 600 L50 610 L50 690 L60 700 L300 700 L310 690 L310 610 L300 590 L270 560 L270 550 Q287 546 300 535 Q312 525 321 507.5 Q330 490 330 460 Q330 434 320.5 410.5 Q311 387 292.5 369 Q274 351 246 340.5 Q218 330 180 330 Q112 330 76 363.5 Q40 397 40 450 L50 460 L140 460 L150 450 Q150 442 157.5 436 Q165 430 180 430 Q203 430 211.5 442.5 Q220 455 220 470 Q220 500 190 500 Q184 500 176 495 Q173 493 170 490 L140 490 L130 500 Z " />
<glyph glyph-name="acute" unicode="&#xb4;" horiz-adv-x="500" d="M250 570 L230 560 L140 560 L130 570 L130 590 L230 690 L250 700 L350 700 L360 690 L360 670 L250 570 Z " />
<glyph glyph-name="mu" unicode="&#xb5;" horiz-adv-x="640" d="M410 30 Q401 19 388 10 Q375 2 359 -4 Q343 -10 320 -10 Q297 -10 280.5 -4 Q264 2 253 10 Q239 19 230 30 L220 30 L220 -190 L210 -200 L90 -200 L80 -190 L80 490 L90 500 L210 500 L220 490 L220 240 Q220 187 243.5 153.5 Q267 120 320 120 Q373 120 396.5 153.5 Q420 187 420 240 L420 490 L430 500 L550 500 L560 490 L560 10 L550 0 L440 0 L430 10 L420 30 L410 30 Z " />
<glyph glyph-name="paragraph" unicode="&#xb6;" horiz-adv-x="770" d="M410 -200 L290 -200 L280 -190 L280 290 L270 300 Q225 300 186.5 311.5 Q148 323 120 347.5 Q92 372 76 410 Q60 448 60 500 Q60 553 76 590.5 Q92 628 121 652.5 Q150 677 190.5 688.5 Q231 700 280 700 L710 700 L720 690 L720 590 L710 580 L650 580 L640 570 L640 -190 L630 -200 L510 -200 L500 -190 L500 570 L490 580 L430 580 L420 570 L420 -190 L410 -200 Z " />
<glyph glyph-name="periodcentered" unicode="&#xb7;" horiz-adv-x="320" d="M230 190 L90 190 L80 200 L80 330 L90 340 L230 340 L240 330 L240 200 L230 190 Z " />
<glyph glyph-name="cedilla" unicode="&#xb8;" horiz-adv-x="500" d="M200 -100 L190 -90 L190 -80 L270 0 L310 0 L240 -70 L250 -70 Q265 -62 273.5 -61 Q282 -60 290 -60 Q313 -60 331.5 -76 Q350 -92 350 -130 Q350 -168 322.5 -189 Q295 -210 250 -210 Q220 -210 201.5 -201.5 Q183 -193 160 -170 L160 -160 L170 -150 L180 -150 Q195 -165 211 -167.5 Q227 -170 250 -170 Q273 -170 286.5 -161.5 Q300 -153 300 -130 Q300 -107 286.5 -98.5 Q273 -90 250 -90 Q242 -90 233.5 -91 Q225 -92 210 -100 L200 -100 Z " />
<glyph glyph-name="onesuperior" unicode="&#xb9;" horiz-adv-x="360" d="M50 430 L60 440 L130 440 L140 450 L140 560 L130 560 L100 530 L70 530 L60 540 L60 620 L130 690 L150 700 L240 700 L250 690 L250 450 L260 440 L310 440 L320 430 L320 350 L310 340 L60 340 L50 350 L50 430 Z " />
<glyph glyph-name="ordmasculine" unicode="&#xba;" horiz-adv-x="540" d="M270 330 Q229 330 194 344 Q159 358 133.5 383.5 Q108 409 94 444 Q80 479 80 520 Q80 561 94 596 Q108 631 133.5 656.5 Q159 682 194 696 Q229 710 270 710 Q311 710 346 696 Q381 682 406.5 656.5 Q432 631 446 596 Q460 561 460 520 Q460 479 446 444 Q432 409 406.5 383.5 Q381 358 346 344 Q311 330 270 330 Z M200 520 Q200 498 206.5 482.5 Q213 467 223.5 457.5 Q234 448 246.5 444 Q259 440 270 440 Q281 440 293.5 444 Q306 448 316.5 457.5 Q327 467 333.5 482.5 Q340 498 340 520 Q340 543 333.5 558 Q327 573 316.5 582.5 Q306 592 293.5 596 Q281 600 270 600 Q259 600 246.5 596 Q234 592 223.5 582.5 Q213 573 206.5 558 Q200 543 200 520 Z M420 260 L120 260 L110 270 L110 280 L120 290 L420 290 L430 280 L430 270 L420 260 Z " />
<glyph glyph-name="guillemotright" unicode="&#xbb;" horiz-adv-x="790" d="M390 40 L390 80 L560 240 L560 260 L390 420 L390 460 L400 470 L520 470 L540 460 L700 300 L710 280 L710 220 L700 200 L540 40 L520 30 L400 30 L390 40 Z M80 40 L80 80 L250 240 L250 260 L80 420 L80 460 L90 470 L210 470 L230 460 L390 300 L400 280 L400 220 L390 200 L230 40 L210 30 L90 30 L80 40 Z " />
<glyph glyph-name="onequarter" unicode="&#xbc;" horiz-adv-x="870" d="M290 10 L280 0 L220 0 L210 10 L210 110 L590 690 L600 700 L660 700 L670 690 L670 590 L290 10 Z M50 430 L60 440 L130 440 L140 450 L140 560 L130 560 L100 530 L70 530 L60 540 L60 620 L130 690 L150 700 L240 700 L250 690 L250 450 L260 440 L310 440 L320 430 L320 350 L310 340 L60 340 L50 350 L50 430 Z M760 0 L670 0 L660 10 L660 50 L650 60 L470 60 L460 70 L460 160 L470 180 L640 350 L660 360 L760 360 L770 350 L770 10 L760 0 Z M660 230 L650 230 L590 170 L590 160 L650 160 L660 170 L660 230 Z " />
<glyph glyph-name="onehalf" unicode="&#xbd;" horiz-adv-x="880" d="M290 10 L280 0 L220 0 L210 10 L210 110 L590 690 L600 700 L660 700 L670 690 L670 590 L290 10 Z M50 430 L60 440 L130 440 L140 450 L140 560 L130 560 L100 530 L70 530 L60 540 L60 620 L130 690 L150 700 L240 700 L250 690 L250 450 L260 440 L310 440 L320 430 L320 350 L310 340 L60 340 L50 350 L50 430 Z M810 0 L540 0 L530 10 L530 90 L540 110 L640 170 Q678 193 689 209 Q700 225 700 240 Q700 270 670 270 Q640 270 640 240 L630 230 L540 230 L530 240 Q530 300 566 335 Q602 370 670 370 Q738 370 774 335 Q810 300 810 240 Q810 214 801.5 194.5 Q793 175 778 160 Q763 145 743 133 Q723 121 700 110 L700 100 L810 100 L820 90 L820 10 L810 0 Z " />
<glyph glyph-name="threequarters" unicode="&#xbe;" horiz-adv-x="870" d="M290 10 L280 0 L220 0 L210 10 L210 110 L590 690 L600 700 L660 700 L670 690 L670 590 L290 10 Z M760 0 L670 0 L660 10 L660 50 L650 60 L470 60 L460 70 L460 160 L470 180 L640 350 L660 360 L760 360 L770 350 L770 10 L760 0 Z M660 230 L650 230 L590 170 L590 160 L650 160 L660 170 L660 230 Z M140 500 L140 560 L170 590 L170 600 L70 600 L60 610 L60 690 L70 700 L310 700 L320 690 L320 610 L310 590 L280 560 L280 550 Q297 546 310 535 Q322 525 331 507.5 Q340 490 340 460 Q340 434 330.5 410.5 Q321 387 302.5 369 Q284 351 256 340.5 Q228 330 190 330 Q122 330 86 363.5 Q50 397 50 450 L60 460 L150 460 L160 450 Q160 442 167.5 436 Q175 430 190 430 Q213 430 221.5 442.5 Q230 455 230 470 Q230 500 200 500 Q194 500 186 495 Q183 493 180 490 L150 490 L140 500 Z " />
<glyph glyph-name="questiondown" unicode="&#xbf;" horiz-adv-x="640" d="M80 -10 Q80 24 89 50.5 Q98 77 113 98.5 Q128 120 148 137.5 Q168 155 190 170 Q213 185 226.5 197 Q240 209 247.5 220 Q255 231 257.5 243 Q260 255 260 270 L270 280 L390 280 L400 270 Q400 217 377.5 178.5 Q355 140 310 110 Q265 80 242.5 54 Q220 28 220 -10 Q220 -40 243.5 -65 Q267 -90 320 -90 Q373 -90 396.5 -65 Q420 -40 420 20 L430 30 L550 30 L560 20 Q560 -29 546.5 -71 Q533 -113 504 -144 Q475 -175 429.5 -192.5 Q384 -210 320 -210 Q256 -210 210.5 -194 Q165 -178 136 -151 Q107 -124 93.5 -87.5 Q80 -51 80 -10 Z M260 500 L400 500 L410 490 L410 360 L400 350 L260 350 L250 360 L250 490 L260 500 Z " />
<glyph glyph-name="Agrave" unicode="&#xc0;" horiz-adv-x="650" d="M620 0 L530 0 L520 10 L470 140 L450 150 L200 150 L180 140 L130 10 L120 0 L30 0 L20 10 L20 110 L250 690 L260 700 L390 700 L400 690 L630 110 L630 10 L620 0 Z M330 520 L320 520 L230 280 L240 270 L410 270 L420 280 L330 520 Z M420 760 L330 760 L310 770 L200 870 L200 890 L210 900 L310 900 L330 890 L430 790 L430 770 L420 760 Z " />
<glyph glyph-name="Aacute" unicode="&#xc1;" horiz-adv-x="650" d="M620 0 L530 0 L520 10 L470 140 L450 150 L200 150 L180 140 L130 10 L120 0 L30 0 L20 10 L20 110 L250 690 L260 700 L390 700 L400 690 L630 110 L630 10 L620 0 Z M330 520 L320 520 L230 280 L240 270 L410 270 L420 280 L330 520 Z M340 770 L320 760 L230 760 L220 770 L220 790 L320 890 L340 900 L440 900 L450 890 L450 870 L340 770 Z " />
<glyph glyph-name="Acircumflex" unicode="&#xc2;" horiz-adv-x="650" d="M490 760 L410 760 L390 770 L330 820 L320 820 L260 770 L240 760 L160 760 L150 770 L150 790 L250 890 L270 900 L380 900 L400 890 L500 790 L500 770 L490 760 Z M620 0 L530 0 L520 10 L470 140 L450 150 L200 150 L180 140 L130 10 L120 0 L30 0 L20 10 L20 110 L250 690 L260 700 L390 700 L400 690 L630 110 L630 10 L620 0 Z M330 520 L320 520 L230 280 L240 270 L410 270 L420 280 L330 520 Z " />
<glyph glyph-name="Atilde" unicode="&#xc3;" horiz-adv-x="650" d="M620 0 L530 0 L520 10 L470 140 L450 150 L200 150 L180 140 L130 10 L120 0 L30 0 L20 10 L20 110 L250 690 L260 700 L390 700 L400 690 L630 110 L630 10 L620 0 Z M330 520 L320 520 L230 280 L240 270 L410 270 L420 280 L330 520 Z M390 740 Q360 740 340 751 Q320 762 305 775 Q290 788 277.5 799 Q265 810 250 810 Q235 810 227.5 801.5 Q220 793 220 770 L210 760 L160 760 L150 770 Q150 830 182.5 860 Q215 890 260 890 Q290 890 310 879 Q330 868 345 855 Q360 842 372.5 831 Q385 820 400 820 Q415 820 422.5 828.5 Q430 837 430 860 L440 870 L490 870 L500 860 Q500 800 467.5 770 Q435 740 390 740 Z " />
<glyph glyph-name="Adieresis" unicode="&#xc4;" horiz-adv-x="650" d="M620 0 L530 0 L520 10 L470 140 L450 150 L200 150 L180 140 L130 10 L120 0 L30 0 L20 10 L20 110 L250 690 L260 700 L390 700 L400 690 L630 110 L630 10 L620 0 Z M330 520 L320 520 L230 280 L240 270 L410 270 L420 280 L330 520 Z M490 760 L380 760 L370 770 L370 870 L380 880 L490 880 L500 870 L500 770 L490 760 Z M270 760 L160 760 L150 770 L150 870 L160 880 L270 880 L280 870 L280 770 L270 760 Z " />
<glyph glyph-name="Aring" unicode="&#xc5;" horiz-adv-x="650" d="M330 780 Q353 780 361.5 787.5 Q370 795 370 810 Q370 825 361.5 832.5 Q353 840 330 840 L320 840 Q297 840 288.5 832.5 Q280 825 280 810 Q280 795 288.5 787.5 Q297 780 320 780 L330 780 Z M320 720 Q275 720 242.5 742.5 Q210 765 210 810 Q210 855 242.5 877.5 Q275 900 320 900 L330 900 Q375 900 407.5 877.5 Q440 855 440 810 Q440 765 407.5 742.5 Q375 720 330 720 L320 720 Z M620 0 L530 0 L520 10 L470 140 L450 150 L200 150 L180 140 L130 10 L120 0 L30 0 L20 10 L20 110 L250 690 L260 700 L390 700 L400 690 L630 110 L630 10 L620 0 Z M330 520 L320 520 L230 280 L240 270 L410 270 L420 280 L330 520 Z " />
<glyph glyph-name="AE" unicode="&#xc6;" horiz-adv-x="990" d="M470 120 L460 130 L200 130 L180 120 L120 10 L110 0 L30 0 L20 10 L20 110 L340 690 L350 700 L920 700 L930 690 L930 590 L920 580 L620 580 L610 570 L610 430 L620 420 L900 420 L910 410 L910 310 L900 300 L620 300 L610 290 L610 130 L620 120 L920 120 L930 110 L930 10 L920 0 L480 0 L470 10 L470 120 Z M470 570 L460 580 L440 580 L430 570 L260 260 L270 250 L460 250 L470 260 L470 570 Z " />
<glyph glyph-name="Ccedilla" unicode="&#xc7;" horiz-adv-x="710" d="M390 -20 L340 -70 L350 -70 Q365 -62 373.5 -61 Q382 -60 390 -60 Q413 -60 431.5 -76 Q450 -92 450 -130 Q450 -168 422.5 -189 Q395 -210 350 -210 Q320 -210 301.5 -201.5 Q283 -193 260 -170 L260 -160 L270 -150 L280 -150 Q295 -165 311 -167.5 Q327 -170 350 -170 Q373 -170 386.5 -161.5 Q400 -153 400 -130 Q400 -107 386.5 -98.5 Q373 -90 350 -90 Q342 -90 333.5 -91 Q325 -92 310 -100 L300 -100 L290 -90 L290 -80 L350 -20 L350 -10 Q290 -6 234 17 Q178 40 135 84 Q92 128 66 194 Q40 260 40 350 Q40 429 62 495 Q84 561 127.5 609 Q171 657 234.5 683.5 Q298 710 380 710 Q440 710 490 695.5 Q540 681 577.5 654 Q615 627 639 588 Q663 549 670 500 L660 490 L540 490 L530 500 Q500 590 380 590 Q328 590 290 572 Q252 554 227.5 522.5 Q203 491 191.5 447 Q180 403 180 350 Q180 298 191.5 253.5 Q203 209 227.5 177.5 Q252 146 290 128 Q328 110 380 110 Q440 110 477.5 133.5 Q515 157 530 210 L540 220 L660 220 L670 210 Q663 154 638 114 Q613 74 577.5 47.5 Q542 21 498.5 7.5 Q455 -6 410 -10 L390 -20 Z " />
<glyph glyph-name="Egrave" unicode="&#xc8;" horiz-adv-x="630" d="M560 0 L90 0 L80 10 L80 690 L90 700 L560 700 L570 690 L570 590 L560 580 L230 580 L220 570 L220 430 L230 420 L540 420 L550 410 L550 310 L540 300 L230 300 L220 290 L220 130 L230 120 L560 120 L570 110 L570 10 L560 0 Z M410 760 L320 760 L300 770 L190 870 L190 890 L200 900 L300 900 L320 890 L420 790 L420 770 L410 760 Z " />
<glyph glyph-name="Eacute" unicode="&#xc9;" horiz-adv-x="630" d="M560 0 L90 0 L80 10 L80 690 L90 700 L560 700 L570 690 L570 590 L560 580 L230 580 L220 570 L220 430 L230 420 L540 420 L550 410 L550 310 L540 300 L230 300 L220 290 L220 130 L230 120 L560 120 L570 110 L570 10 L560 0 Z M350 770 L330 760 L240 760 L230 770 L230 790 L330 890 L350 900 L450 900 L460 890 L460 870 L350 770 Z " />
<glyph glyph-name="Ecircumflex" unicode="&#xca;" horiz-adv-x="630" d="M560 0 L90 0 L80 10 L80 690 L90 700 L560 700 L570 690 L570 590 L560 580 L230 580 L220 570 L220 430 L230 420 L540 420 L550 410 L550 310 L540 300 L230 300 L220 290 L220 130 L230 120 L560 120 L570 110 L570 10 L560 0 Z M490 760 L410 760 L390 770 L330 820 L320 820 L260 770 L240 760 L160 760 L150 770 L150 790 L250 890 L270 900 L380 900 L400 890 L500 790 L500 770 L490 760 Z " />
<glyph glyph-name="Edieresis" unicode="&#xcb;" horiz-adv-x="630" d="M560 0 L90 0 L80 10 L80 690 L90 700 L560 700 L570 690 L570 590 L560 580 L230 580 L220 570 L220 430 L230 420 L540 420 L550 410 L550 310 L540 300 L230 300 L220 290 L220 130 L230 120 L560 120 L570 110 L570 10 L560 0 Z M490 780 L380 780 L370 790 L370 890 L380 900 L490 900 L500 890 L500 790 L490 780 Z M270 780 L160 780 L150 790 L150 890 L160 900 L270 900 L280 890 L280 790 L270 780 Z " />
<glyph glyph-name="Igrave" unicode="&#xcc;" horiz-adv-x="300" d="M210 0 L90 0 L80 10 L80 690 L90 700 L210 700 L220 690 L220 10 L210 0 Z M230 760 L140 760 L120 770 L10 870 L10 890 L20 900 L120 900 L140 890 L240 790 L240 770 L230 760 Z " />
<glyph glyph-name="Iacute" unicode="&#xcd;" horiz-adv-x="300" d="M210 0 L90 0 L80 10 L80 690 L90 700 L210 700 L220 690 L220 10 L210 0 Z M180 770 L160 760 L70 760 L60 770 L60 790 L160 890 L180 900 L280 900 L290 890 L290 870 L180 770 Z " />
<glyph glyph-name="Icircumflex" unicode="&#xce;" horiz-adv-x="300" d="M210 0 L90 0 L80 10 L80 690 L90 700 L210 700 L220 690 L220 10 L210 0 Z M320 760 L240 760 L220 770 L160 820 L140 820 L80 770 L60 760 L-20 760 L-30 770 L-30 790 L70 890 L90 900 L210 900 L230 890 L330 790 L330 770 L320 760 Z " />
<glyph glyph-name="Idieresis" unicode="&#xcf;" horiz-adv-x="300" d="M210 0 L90 0 L80 10 L80 690 L90 700 L210 700 L220 690 L220 10 L210 0 Z M310 780 L200 780 L190 790 L190 890 L200 900 L310 900 L320 890 L320 790 L310 780 Z M100 780 L-10 780 L-20 790 L-20 890 L-10 900 L100 900 L110 890 L110 790 L100 780 Z " />
<glyph glyph-name="Eth" unicode="&#xd0;" horiz-adv-x="690" d="M0 400 L10 410 L70 410 L80 420 L80 690 L90 700 L310 700 Q404 700 468.5 676.5 Q533 653 573.5 608 Q614 563 632 498 Q650 433 650 350 Q650 268 632 203 Q614 138 573.5 93 Q533 48 468.5 24 Q404 0 310 0 L90 0 L80 10 L80 280 L70 290 L10 290 L0 300 L0 400 Z M510 350 Q510 470 467.5 525 Q425 580 320 580 L230 580 L220 570 L220 420 L230 410 L360 410 L370 400 L370 300 L360 290 L230 290 L220 280 L220 130 L230 120 L320 120 Q425 120 467.5 175 Q510 230 510 350 Z " />
<glyph glyph-name="Ntilde" unicode="&#xd1;" horiz-adv-x="750" d="M90 700 L230 700 L250 690 L520 230 L530 230 L530 690 L540 700 L660 700 L670 690 L670 10 L660 0 L520 0 L500 10 L230 470 L220 470 L220 10 L210 0 L90 0 L80 10 L80 690 L90 700 Z M440 740 Q410 740 390 751 Q370 762 355 775 Q340 788 327.5 799 Q315 810 300 810 Q285 810 277.5 801.5 Q270 793 270 770 L260 760 L210 760 L200 770 Q200 830 232.5 860 Q265 890 310 890 Q340 890 360 879 Q380 868 395 855 Q410 842 422.5 831 Q435 820 450 820 Q465 820 472.5 828.5 Q480 837 480 860 L490 870 L540 870 L550 860 Q550 800 517.5 770 Q485 740 440 740 Z " />
<glyph glyph-name="Ograve" unicode="&#xd2;" horiz-adv-x="760" d="M580 350 Q580 403 567 447 Q554 491 528.5 522.5 Q503 554 466 572 Q429 590 380 590 Q331 590 294 572 Q257 554 231.5 522.5 Q206 491 193 447 Q180 403 180 350 Q180 298 193 253.5 Q206 209 231.5 177.5 Q257 146 294 128 Q331 110 380 110 Q429 110 466 128 Q503 146 528.5 177.5 Q554 209 567 253.5 Q580 298 580 350 Z M720 350 Q720 271 696.5 205 Q673 139 629 91 Q585 43 522 16.5 Q459 -10 380 -10 Q301 -10 238 16.5 Q175 43 131 91 Q87 139 63.5 205 Q40 271 40 350 Q40 429 63.5 495 Q87 561 131 609 Q175 657 238 683.5 Q301 710 380 710 Q459 710 522 683.5 Q585 657 629 609 Q673 561 696.5 495 Q720 429 720 350 Z M470 760 L380 760 L360 770 L250 870 L250 890 L260 900 L360 900 L380 890 L480 790 L480 770 L470 760 Z " />
<glyph glyph-name="Oacute" unicode="&#xd3;" horiz-adv-x="760" d="M580 350 Q580 403 567 447 Q554 491 528.5 522.5 Q503 554 466 572 Q429 590 380 590 Q331 590 294 572 Q257 554 231.5 522.5 Q206 491 193 447 Q180 403 180 350 Q180 298 193 253.5 Q206 209 231.5 177.5 Q257 146 294 128 Q331 110 380 110 Q429 110 466 128 Q503 146 528.5 177.5 Q554 209 567 253.5 Q580 298 580 350 Z M720 350 Q720 271 696.5 205 Q673 139 629 91 Q585 43 522 16.5 Q459 -10 380 -10 Q301 -10 238 16.5 Q175 43 131 91 Q87 139 63.5 205 Q40 271 40 350 Q40 429 63.5 495 Q87 561 131 609 Q175 657 238 683.5 Q301 710 380 710 Q459 710 522 683.5 Q585 657 629 609 Q673 561 696.5 495 Q720 429 720 350 Z M400 770 L380 760 L290 760 L280 770 L280 790 L380 890 L400 900 L500 900 L510 890 L510 870 L400 770 Z " />
<glyph glyph-name="Ocircumflex" unicode="&#xd4;" horiz-adv-x="760" d="M580 350 Q580 403 567 447 Q554 491 528.5 522.5 Q503 554 466 572 Q429 590 380 590 Q331 590 294 572 Q257 554 231.5 522.5 Q206 491 193 447 Q180 403 180 350 Q180 298 193 253.5 Q206 209 231.5 177.5 Q257 146 294 128 Q331 110 380 110 Q429 110 466 128 Q503 146 528.5 177.5 Q554 209 567 253.5 Q580 298 580 350 Z M720 350 Q720 271 696.5 205 Q673 139 629 91 Q585 43 522 16.5 Q459 -10 380 -10 Q301 -10 238 16.5 Q175 43 131 91 Q87 139 63.5 205 Q40 271 40 350 Q40 429 63.5 495 Q87 561 131 609 Q175 657 238 683.5 Q301 710 380 710 Q459 710 522 683.5 Q585 657 629 609 Q673 561 696.5 495 Q720 429 720 350 Z M550 760 L470 760 L450 770 L390 820 L370 820 L310 770 L290 760 L210 760 L200 770 L200 790 L300 890 L320 900 L440 900 L460 890 L560 790 L560 770 L550 760 Z " />
<glyph glyph-name="Otilde" unicode="&#xd5;" horiz-adv-x="760" d="M580 350 Q580 403 567 447 Q554 491 528.5 522.5 Q503 554 466 572 Q429 590 380 590 Q331 590 294 572 Q257 554 231.5 522.5 Q206 491 193 447 Q180 403 180 350 Q180 298 193 253.5 Q206 209 231.5 177.5 Q257 146 294 128 Q331 110 380 110 Q429 110 466 128 Q503 146 528.5 177.5 Q554 209 567 253.5 Q580 298 580 350 Z M720 350 Q720 271 696.5 205 Q673 139 629 91 Q585 43 522 16.5 Q459 -10 380 -10 Q301 -10 238 16.5 Q175 43 131 91 Q87 139 63.5 205 Q40 271 40 350 Q40 429 63.5 495 Q87 561 131 609 Q175 657 238 683.5 Q301 710 380 710 Q459 710 522 683.5 Q585 657 629 609 Q673 561 696.5 495 Q720 429 720 350 Z M450 740 Q420 740 400 751 Q380 762 365 775 Q350 788 337.5 799 Q325 810 310 810 Q295 810 287.5 801.5 Q280 793 280 770 L270 760 L220 760 L210 770 Q210 830 242.5 860 Q275 890 320 890 Q350 890 370 879 Q390 868 405 855 Q420 842 432.5 831 Q445 820 460 820 Q475 820 482.5 828.5 Q490 837 490 860 L500 870 L550 870 L560 860 Q560 800 527.5 770 Q495 740 450 740 Z " />
<glyph glyph-name="Odieresis" unicode="&#xd6;" horiz-adv-x="760" d="M580 350 Q580 403 567 447 Q554 491 528.5 522.5 Q503 554 466 572 Q429 590 380 590 Q331 590 294 572 Q257 554 231.5 522.5 Q206 491 193 447 Q180 403 180 350 Q180 298 193 253.5 Q206 209 231.5 177.5 Q257 146 294 128 Q331 110 380 110 Q429 110 466 128 Q503 146 528.5 177.5 Q554 209 567 253.5 Q580 298 580 350 Z M720 350 Q720 271 696.5 205 Q673 139 629 91 Q585 43 522 16.5 Q459 -10 380 -10 Q301 -10 238 16.5 Q175 43 131 91 Q87 139 63.5 205 Q40 271 40 350 Q40 429 63.5 495 Q87 561 131 609 Q175 657 238 683.5 Q301 710 380 710 Q459 710 522 683.5 Q585 657 629 609 Q673 561 696.5 495 Q720 429 720 350 Z M540 780 L430 780 L420 790 L420 890 L430 900 L540 900 L550 890 L550 790 L540 780 Z M330 780 L220 780 L210 790 L210 890 L220 900 L330 900 L340 890 L340 790 L330 780 Z " />
<glyph glyph-name="multiply" unicode="&#xd7;" horiz-adv-x="610" d="M480 10 L470 10 L310 170 L300 170 L140 10 L130 10 L60 80 L60 90 L220 250 L220 260 L60 420 L60 430 L130 500 L140 500 L300 340 L310 340 L470 500 L480 500 L550 430 L550 420 L390 260 L390 250 L550 90 L550 80 L480 10 Z " />
<glyph glyph-name="Oslash" unicode="&#xd8;" horiz-adv-x="760" d="M140 70 L100 30 L80 20 L70 20 L60 30 L60 80 L100 120 L100 130 Q70 175 55 232.5 Q40 290 40 350 Q40 429 63.5 495 Q87 561 131 609 Q175 657 238 683.5 Q301 710 380 710 Q455 710 508.5 689 Q562 668 600 630 L610 630 L660 680 L680 690 L690 690 L700 680 L700 630 L660 590 L660 570 Q690 525 705 467.5 Q720 410 720 350 Q720 271 696.5 205 Q673 139 629 91 Q585 43 522 16.5 Q459 -10 380 -10 Q312 -10 253.5 11 Q195 32 150 70 L140 70 Z M250 160 Q273 137 307.5 123.5 Q342 110 380 110 Q429 110 466 128 Q503 146 528.5 177.5 Q554 209 567 253.5 Q580 298 580 350 Q580 388 574 421.5 Q568 455 560 470 L540 470 L250 180 L250 160 Z M210 230 L510 530 L510 540 Q487 563 456 576.5 Q425 590 380 590 Q331 590 294 572 Q257 554 231.5 522.5 Q206 491 193 447 Q180 403 180 350 Q180 312 186 278.5 Q192 245 200 230 L210 230 Z " />
<glyph glyph-name="Ugrave" unicode="&#xd9;" horiz-adv-x="720" d="M640 270 Q640 134 568 62 Q496 -10 360 -10 Q224 -10 152 62 Q80 134 80 270 L80 690 L90 700 L210 700 L220 690 L220 270 Q220 195 252.5 152.5 Q285 110 360 110 Q435 110 467.5 152.5 Q500 195 500 270 L500 690 L510 700 L630 700 L640 690 L640 270 Z M440 760 L350 760 L330 770 L220 870 L220 890 L230 900 L330 900 L350 890 L450 790 L450 770 L440 760 Z " />
<glyph glyph-name="Uacute" unicode="&#xda;" horiz-adv-x="720" d="M640 270 Q640 134 568 62 Q496 -10 360 -10 Q224 -10 152 62 Q80 134 80 270 L80 690 L90 700 L210 700 L220 690 L220 270 Q220 195 252.5 152.5 Q285 110 360 110 Q435 110 467.5 152.5 Q500 195 500 270 L500 690 L510 700 L630 700 L640 690 L640 270 Z M390 770 L370 760 L280 760 L270 770 L270 790 L370 890 L390 900 L490 900 L500 890 L500 870 L390 770 Z " />
<glyph glyph-name="Ucircumflex" unicode="&#xdb;" horiz-adv-x="720" d="M640 270 Q640 134 568 62 Q496 -10 360 -10 Q224 -10 152 62 Q80 134 80 270 L80 690 L90 700 L210 700 L220 690 L220 270 Q220 195 252.5 152.5 Q285 110 360 110 Q435 110 467.5 152.5 Q500 195 500 270 L500 690 L510 700 L630 700 L640 690 L640 270 Z M530 760 L450 760 L430 770 L370 820 L350 820 L290 770 L270 760 L190 760 L180 770 L180 790 L280 890 L300 900 L420 900 L440 890 L540 790 L540 770 L530 760 Z " />
<glyph glyph-name="Udieresis" unicode="&#xdc;" horiz-adv-x="720" d="M640 270 Q640 134 568 62 Q496 -10 360 -10 Q224 -10 152 62 Q80 134 80 270 L80 690 L90 700 L210 700 L220 690 L220 270 Q220 195 252.5 152.5 Q285 110 360 110 Q435 110 467.5 152.5 Q500 195 500 270 L500 690 L510 700 L630 700 L640 690 L640 270 Z M520 780 L410 780 L400 790 L400 890 L410 900 L520 900 L530 890 L530 790 L520 780 Z M300 780 L190 780 L180 790 L180 890 L190 900 L300 900 L310 890 L310 790 L300 780 Z " />
<glyph glyph-name="Yacute" unicode="&#xdd;" horiz-adv-x="600" d="M370 260 L370 10 L360 0 L240 0 L230 10 L230 260 L30 590 L30 690 L40 700 L110 700 L130 690 L290 420 L310 420 L470 690 L490 700 L560 700 L570 690 L570 590 L370 260 Z M330 770 L310 760 L220 760 L210 770 L210 790 L310 890 L330 900 L430 900 L440 890 L440 870 L330 770 Z " />
<glyph glyph-name="Thorn" unicode="&#xde;" horiz-adv-x="640" d="M210 0 L90 0 L80 10 L80 690 L90 700 L210 700 L220 690 L220 560 L230 550 L370 550 Q475 550 537.5 499 Q600 448 600 350 Q600 301 582.5 264 Q565 227 534 201.5 Q503 176 461 163 Q419 150 370 150 L230 150 L220 140 L220 10 L210 0 Z M460 350 Q460 388 441.5 409 Q423 430 370 430 L230 430 L220 420 L220 280 L230 270 L370 270 Q423 270 441.5 291 Q460 312 460 350 Z " />
<glyph glyph-name="germandbls" unicode="&#xdf;" horiz-adv-x="630" d="M600 210 Q600 169 585 129.5 Q570 90 541 59 Q512 28 469 9 Q426 -10 370 -10 Q347 -10 330.5 -7 Q314 -4 303 0 Q289 4 280 10 L270 20 L270 110 L280 120 Q289 117 300 115 Q310 113 322.5 111.5 Q335 110 350 110 Q403 110 431.5 138.5 Q460 167 460 220 Q460 254 448 273.5 Q436 293 415 303.5 Q394 314 367 317 Q340 320 310 320 L300 330 L300 410 L310 420 Q363 420 391.5 441 Q420 462 420 500 Q420 538 401.5 564 Q383 590 330 590 Q300 590 280.5 583 Q261 576 250 564 Q239 552 234.5 535.5 Q230 519 230 500 L230 10 L220 0 L100 0 L90 10 L90 390 L80 400 L30 400 L20 410 L20 490 L30 500 L80 500 L90 510 Q90 555 106.5 592 Q123 629 154 655 Q185 681 229.5 695.5 Q274 710 330 710 Q386 710 429 694.5 Q472 679 501 652.5 Q530 626 545 592 Q560 558 560 520 Q560 467 534 431 Q508 395 470 380 L470 370 Q493 366 516 354.5 Q539 343 557.5 323.5 Q576 304 588 276 Q600 248 600 210 Z " />
<glyph glyph-name="agrave" unicode="&#xe0;" horiz-adv-x="520" d="M460 0 L350 0 L340 10 L330 30 L320 30 Q308 19 291 10 Q276 2 256 -4 Q236 -10 210 -10 Q127 -10 78.5 32.5 Q30 75 30 150 Q30 206 53 239.5 Q76 273 110 291 Q144 309 182 314.5 Q220 320 250 320 Q265 320 278 318.5 Q291 317 300 315 Q311 313 320 310 L330 320 L330 330 Q330 349 327.5 360.5 Q325 372 317.5 378.5 Q310 385 296.5 387.5 Q283 390 260 390 Q237 390 217.5 386.5 Q198 383 190 360 L180 350 L60 350 L50 360 Q50 383 60.5 409 Q71 435 95 457.5 Q119 480 159.5 495 Q200 510 260 510 Q320 510 360.5 495 Q401 480 425 451 Q449 422 459.5 379 Q470 336 470 280 L470 10 L460 0 Z M320 210 Q314 213 305 215 Q297 217 286 218.5 Q275 220 260 220 Q170 220 170 160 Q170 137 186 123.5 Q202 110 240 110 Q278 110 304 130 Q330 150 330 180 L330 200 L320 210 Z M350 560 L260 560 L240 570 L130 670 L130 690 L140 700 L240 700 L260 690 L360 590 L360 570 L350 560 Z " />
<glyph glyph-name="aacute" unicode="&#xe1;" horiz-adv-x="520" d="M460 0 L350 0 L340 10 L330 30 L320 30 Q308 19 291 10 Q276 2 256 -4 Q236 -10 210 -10 Q127 -10 78.5 32.5 Q30 75 30 150 Q30 206 53 239.5 Q76 273 110 291 Q144 309 182 314.5 Q220 320 250 320 Q265 320 278 318.5 Q291 317 300 315 Q311 313 320 310 L330 320 L330 330 Q330 349 327.5 360.5 Q325 372 317.5 378.5 Q310 385 296.5 387.5 Q283 390 260 390 Q237 390 217.5 386.5 Q198 383 190 360 L180 350 L60 350 L50 360 Q50 383 60.5 409 Q71 435 95 457.5 Q119 480 159.5 495 Q200 510 260 510 Q320 510 360.5 495 Q401 480 425 451 Q449 422 459.5 379 Q470 336 470 280 L470 10 L460 0 Z M320 210 Q314 213 305 215 Q297 217 286 218.5 Q275 220 260 220 Q170 220 170 160 Q170 137 186 123.5 Q202 110 240 110 Q278 110 304 130 Q330 150 330 180 L330 200 L320 210 Z M280 570 L260 560 L170 560 L160 570 L160 590 L260 690 L280 700 L380 700 L390 690 L390 670 L280 570 Z " />
<glyph glyph-name="acircumflex" unicode="&#xe2;" horiz-adv-x="520" d="M460 0 L350 0 L340 10 L330 30 L320 30 Q308 19 291 10 Q276 2 256 -4 Q236 -10 210 -10 Q127 -10 78.5 32.5 Q30 75 30 150 Q30 206 53 239.5 Q76 273 110 291 Q144 309 182 314.5 Q220 320 250 320 Q265 320 278 318.5 Q291 317 300 315 Q311 313 320 310 L330 320 L330 330 Q330 349 327.5 360.5 Q325 372 317.5 378.5 Q310 385 296.5 387.5 Q283 390 260 390 Q237 390 217.5 386.5 Q198 383 190 360 L180 350 L60 350 L50 360 Q50 383 60.5 409 Q71 435 95 457.5 Q119 480 159.5 495 Q200 510 260 510 Q320 510 360.5 495 Q401 480 425 451 Q449 422 459.5 379 Q470 336 470 280 L470 10 L460 0 Z M320 210 Q314 213 305 215 Q297 217 286 218.5 Q275 220 260 220 Q170 220 170 160 Q170 137 186 123.5 Q202 110 240 110 Q278 110 304 130 Q330 150 330 180 L330 200 L320 210 Z M430 560 L350 560 L330 570 L270 620 L250 620 L190 570 L170 560 L90 560 L80 570 L80 590 L180 690 L200 700 L320 700 L340 690 L440 590 L440 570 L430 560 Z " />
<glyph glyph-name="atilde" unicode="&#xe3;" horiz-adv-x="520" d="M460 0 L350 0 L340 10 L330 30 L320 30 Q308 19 291 10 Q276 2 256 -4 Q236 -10 210 -10 Q127 -10 78.5 32.5 Q30 75 30 150 Q30 206 53 239.5 Q76 273 110 291 Q144 309 182 314.5 Q220 320 250 320 Q265 320 278 318.5 Q291 317 300 315 Q311 313 320 310 L330 320 L330 330 Q330 349 327.5 360.5 Q325 372 317.5 378.5 Q310 385 296.5 387.5 Q283 390 260 390 Q237 390 217.5 386.5 Q198 383 190 360 L180 350 L60 350 L50 360 Q50 383 60.5 409 Q71 435 95 457.5 Q119 480 159.5 495 Q200 510 260 510 Q320 510 360.5 495 Q401 480 425 451 Q449 422 459.5 379 Q470 336 470 280 L470 10 L460 0 Z M320 210 Q314 213 305 215 Q297 217 286 218.5 Q275 220 260 220 Q170 220 170 160 Q170 137 186 123.5 Q202 110 240 110 Q278 110 304 130 Q330 150 330 180 L330 200 L320 210 Z M330 540 Q300 540 280 551 Q260 562 245 575 Q230 588 217.5 599 Q205 610 190 610 Q175 610 167.5 601.5 Q160 593 160 570 L150 560 L100 560 L90 570 Q90 630 122.5 660 Q155 690 200 690 Q230 690 250 679 Q270 668 285 655 Q300 642 312.5 631 Q325 620 340 620 Q355 620 362.5 628.5 Q370 637 370 660 L380 670 L430 670 L440 660 Q440 600 407.5 570 Q375 540 330 540 Z " />
<glyph glyph-name="adieresis" unicode="&#xe4;" horiz-adv-x="520" d="M460 0 L350 0 L340 10 L330 30 L320 30 Q308 19 291 10 Q276 2 256 -4 Q236 -10 210 -10 Q127 -10 78.5 32.5 Q30 75 30 150 Q30 206 53 239.5 Q76 273 110 291 Q144 309 182 314.5 Q220 320 250 320 Q265 320 278 318.5 Q291 317 300 315 Q311 313 320 310 L330 320 L330 330 Q330 349 327.5 360.5 Q325 372 317.5 378.5 Q310 385 296.5 387.5 Q283 390 260 390 Q237 390 217.5 386.5 Q198 383 190 360 L180 350 L60 350 L50 360 Q50 383 60.5 409 Q71 435 95 457.5 Q119 480 159.5 495 Q200 510 260 510 Q320 510 360.5 495 Q401 480 425 451 Q449 422 459.5 379 Q470 336 470 280 L470 10 L460 0 Z M320 210 Q314 213 305 215 Q297 217 286 218.5 Q275 220 260 220 Q170 220 170 160 Q170 137 186 123.5 Q202 110 240 110 Q278 110 304 130 Q330 150 330 180 L330 200 L320 210 Z M420 580 L310 580 L300 590 L300 690 L310 700 L420 700 L430 690 L430 590 L420 580 Z M210 580 L100 580 L90 590 L90 690 L100 700 L210 700 L220 690 L220 590 L210 580 Z " />
<glyph glyph-name="aring" unicode="&#xe5;" horiz-adv-x="520" d="M460 0 L350 0 L340 10 L330 30 L320 30 Q308 19 291 10 Q276 2 256 -4 Q236 -10 210 -10 Q127 -10 78.5 32.5 Q30 75 30 150 Q30 206 53 239.5 Q76 273 110 291 Q144 309 182 314.5 Q220 320 250 320 Q265 320 278 318.5 Q291 317 300 315 Q311 313 320 310 L330 320 L330 330 Q330 349 327.5 360.5 Q325 372 317.5 378.5 Q310 385 296.5 387.5 Q283 390 260 390 Q237 390 217.5 386.5 Q198 383 190 360 L180 350 L60 350 L50 360 Q50 383 60.5 409 Q71 435 95 457.5 Q119 480 159.5 495 Q200 510 260 510 Q320 510 360.5 495 Q401 480 425 451 Q449 422 459.5 379 Q470 336 470 280 L470 10 L460 0 Z M320 210 Q314 213 305 215 Q297 217 286 218.5 Q275 220 260 220 Q170 220 170 160 Q170 137 186 123.5 Q202 110 240 110 Q278 110 304 130 Q330 150 330 180 L330 200 L320 210 Z M300 630 Q300 645 291.5 652.5 Q283 660 260 660 Q237 660 228.5 652.5 Q220 645 220 630 Q220 615 228.5 607.5 Q237 600 260 600 Q283 600 291.5 607.5 Q300 615 300 630 Z M150 630 Q150 675 182.5 697.5 Q215 720 260 720 Q305 720 337.5 697.5 Q370 675 370 630 Q370 585 337.5 562.5 Q305 540 260 540 Q215 540 182.5 562.5 Q150 585 150 630 Z " />
<glyph glyph-name="ae" unicode="&#xe6;" horiz-adv-x="840" d="M810 210 L800 200 L490 200 L480 190 Q480 183 484.5 169.5 Q489 156 500 142.5 Q511 129 530.5 119.5 Q550 110 580 110 Q603 110 622.5 117.5 Q642 125 650 140 L660 150 L780 150 L790 140 Q786 118 774 91.5 Q762 65 737.5 42.5 Q713 20 674.5 5 Q636 -10 580 -10 Q520 -10 476.5 10 Q433 30 410 60 L400 60 Q393 53 379 41 Q365 29 342.5 17.5 Q320 6 287.5 -2 Q255 -10 210 -10 Q127 -10 78.5 32.5 Q30 75 30 150 Q30 206 53 239.5 Q76 273 110 291 Q144 309 182 314.5 Q220 320 250 320 Q265 320 278 318.5 Q291 317 300 315 Q311 313 320 310 L330 320 L330 330 Q330 349 327.5 360.5 Q325 372 317.5 378.5 Q310 385 296.5 387.5 Q283 390 260 390 Q237 390 217.5 386.5 Q198 383 190 360 L180 350 L60 350 L50 360 Q50 383 60.5 409 Q71 435 95 457.5 Q119 480 159.5 495 Q200 510 260 510 Q313 510 355 496.5 Q397 483 420 460 L430 460 Q453 483 489 496.5 Q525 510 570 510 Q630 510 675 489 Q720 468 750 432.5 Q780 397 795 350 Q810 303 810 250 L810 210 Z M320 210 Q314 213 305 215 Q297 217 286 218.5 Q275 220 260 220 Q170 220 170 160 Q170 137 186 123.5 Q202 110 240 110 Q278 110 304 130 Q330 150 330 180 L330 200 L320 210 Z M660 310 Q660 314 657 327 Q654 340 645 354 Q636 368 618 379 Q600 390 570 390 Q540 390 522 379 Q504 368 495 354 Q486 340 483 327 Q480 314 480 310 L490 300 L650 300 L660 310 Z " />
<glyph glyph-name="ccedilla" unicode="&#xe7;" horiz-adv-x="540" d="M210 -100 L200 -90 L200 -80 L260 -20 L260 -10 Q208 -6 165.5 14 Q123 34 93 67.5 Q63 101 46.5 147.5 Q30 194 30 250 Q30 310 48 358 Q66 406 99 440 Q132 474 178 492 Q224 510 280 510 Q321 510 359.5 500.5 Q398 491 429 470 Q460 449 481.5 417 Q503 385 510 340 L500 330 L380 330 L370 340 Q362 363 340 376.5 Q318 390 280 390 Q227 390 198.5 354 Q170 318 170 250 Q170 182 198.5 146 Q227 110 280 110 Q318 110 340 123.5 Q362 137 370 160 L380 170 L500 170 L510 160 Q503 115 482 84 Q461 53 434 33.5 Q407 14 376.5 4 Q346 -6 320 -10 L300 -20 L250 -70 L260 -70 Q275 -62 283.5 -61 Q292 -60 300 -60 Q323 -60 341.5 -76 Q360 -92 360 -130 Q360 -168 332.5 -189 Q305 -210 260 -210 Q230 -210 211.5 -201.5 Q193 -193 170 -170 L170 -160 L180 -150 L190 -150 Q205 -165 221 -167.5 Q237 -170 260 -170 Q283 -170 296.5 -161.5 Q310 -153 310 -130 Q310 -107 296.5 -98.5 Q283 -90 260 -90 Q252 -90 243.5 -91 Q235 -92 220 -100 L210 -100 Z " />
<glyph glyph-name="egrave" unicode="&#xe8;" horiz-adv-x="540" d="M510 210 L500 200 L190 200 L180 190 Q180 183 184.5 169.5 Q189 156 200 142.5 Q211 129 230.5 119.5 Q250 110 280 110 Q303 110 322.5 117.5 Q342 125 350 140 L360 150 L480 150 L490 140 Q486 118 474 91.5 Q462 65 437.5 42.5 Q413 20 374.5 5 Q336 -10 280 -10 Q216 -10 169 11 Q122 32 91 67.5 Q60 103 45 150.5 Q30 198 30 250 Q30 303 45 350 Q60 397 90 432.5 Q120 468 165 489 Q210 510 270 510 Q330 510 375 489 Q420 468 450 432.5 Q480 397 495 350 Q510 303 510 250 L510 210 Z M360 310 Q360 314 357 327 Q354 340 345 354 Q336 368 318 379 Q300 390 270 390 Q240 390 222 379 Q204 368 195 354 Q186 340 183 327 Q180 314 180 310 L190 300 L350 300 L360 310 Z M350 560 L260 560 L240 570 L130 670 L130 690 L140 700 L240 700 L260 690 L360 590 L360 570 L350 560 Z " />
<glyph glyph-name="eacute" unicode="&#xe9;" horiz-adv-x="540" d="M510 210 L500 200 L190 200 L180 190 Q180 183 184.5 169.5 Q189 156 200 142.5 Q211 129 230.5 119.5 Q250 110 280 110 Q303 110 322.5 117.5 Q342 125 350 140 L360 150 L480 150 L490 140 Q486 118 474 91.5 Q462 65 437.5 42.5 Q413 20 374.5 5 Q336 -10 280 -10 Q216 -10 169 11 Q122 32 91 67.5 Q60 103 45 150.5 Q30 198 30 250 Q30 303 45 350 Q60 397 90 432.5 Q120 468 165 489 Q210 510 270 510 Q330 510 375 489 Q420 468 450 432.5 Q480 397 495 350 Q510 303 510 250 L510 210 Z M360 310 Q360 314 357 327 Q354 340 345 354 Q336 368 318 379 Q300 390 270 390 Q240 390 222 379 Q204 368 195 354 Q186 340 183 327 Q180 314 180 310 L190 300 L350 300 L360 310 Z M300 570 L280 560 L190 560 L180 570 L180 590 L280 690 L300 700 L400 700 L410 690 L410 670 L300 570 Z " />
<glyph glyph-name="ecircumflex" unicode="&#xea;" horiz-adv-x="540" d="M510 210 L500 200 L190 200 L180 190 Q180 183 184.5 169.5 Q189 156 200 142.5 Q211 129 230.5 119.5 Q250 110 280 110 Q303 110 322.5 117.5 Q342 125 350 140 L360 150 L480 150 L490 140 Q486 118 474 91.5 Q462 65 437.5 42.5 Q413 20 374.5 5 Q336 -10 280 -10 Q216 -10 169 11 Q122 32 91 67.5 Q60 103 45 150.5 Q30 198 30 250 Q30 303 45 350 Q60 397 90 432.5 Q120 468 165 489 Q210 510 270 510 Q330 510 375 489 Q420 468 450 432.5 Q480 397 495 350 Q510 303 510 250 L510 210 Z M360 310 Q360 314 357 327 Q354 340 345 354 Q336 368 318 379 Q300 390 270 390 Q240 390 222 379 Q204 368 195 354 Q186 340 183 327 Q180 314 180 310 L190 300 L350 300 L360 310 Z M440 560 L360 560 L340 570 L280 620 L260 620 L200 570 L180 560 L100 560 L90 570 L90 590 L190 690 L210 700 L330 700 L350 690 L450 590 L450 570 L440 560 Z " />
<glyph glyph-name="edieresis" unicode="&#xeb;" horiz-adv-x="540" d="M510 210 L500 200 L190 200 L180 190 Q180 183 184.5 169.5 Q189 156 200 142.5 Q211 129 230.5 119.5 Q250 110 280 110 Q303 110 322.5 117.5 Q342 125 350 140 L360 150 L480 150 L490 140 Q486 118 474 91.5 Q462 65 437.5 42.5 Q413 20 374.5 5 Q336 -10 280 -10 Q216 -10 169 11 Q122 32 91 67.5 Q60 103 45 150.5 Q30 198 30 250 Q30 303 45 350 Q60 397 90 432.5 Q120 468 165 489 Q210 510 270 510 Q330 510 375 489 Q420 468 450 432.5 Q480 397 495 350 Q510 303 510 250 L510 210 Z M360 310 Q360 314 357 327 Q354 340 345 354 Q336 368 318 379 Q300 390 270 390 Q240 390 222 379 Q204 368 195 354 Q186 340 183 327 Q180 314 180 310 L190 300 L350 300 L360 310 Z M430 580 L320 580 L310 590 L310 690 L320 700 L430 700 L440 690 L440 590 L430 580 Z M220 580 L110 580 L100 590 L100 690 L110 700 L220 700 L230 690 L230 590 L220 580 Z " />
<glyph glyph-name="igrave" unicode="&#xec;" horiz-adv-x="260" d="M190 0 L70 0 L60 10 L60 490 L70 500 L190 500 L200 490 L200 10 L190 0 Z M210 560 L120 560 L100 570 L-10 670 L-10 690 L0 700 L100 700 L120 690 L220 590 L220 570 L210 560 Z " />
<glyph glyph-name="iacute" unicode="&#xed;" horiz-adv-x="260" d="M190 0 L70 0 L60 10 L60 490 L70 500 L190 500 L200 490 L200 10 L190 0 Z M160 570 L140 560 L50 560 L40 570 L40 590 L140 690 L160 700 L260 700 L270 690 L270 670 L160 570 Z " />
<glyph glyph-name="icircumflex" unicode="&#xee;" horiz-adv-x="260" d="M190 0 L70 0 L60 10 L60 490 L70 500 L190 500 L200 490 L200 10 L190 0 Z M300 560 L220 560 L200 570 L140 620 L120 620 L60 570 L40 560 L-40 560 L-50 570 L-50 590 L50 690 L70 700 L190 700 L210 690 L310 590 L310 570 L300 560 Z " />
<glyph glyph-name="idieresis" unicode="&#xef;" horiz-adv-x="260" d="M190 0 L70 0 L60 10 L60 490 L70 500 L190 500 L200 490 L200 10 L190 0 Z M290 580 L180 580 L170 590 L170 690 L180 700 L290 700 L300 690 L300 590 L290 580 Z M80 580 L-30 580 L-40 590 L-40 690 L-30 700 L80 700 L90 690 L90 590 L80 580 Z " />
<glyph glyph-name="eth" unicode="&#xf0;" horiz-adv-x="560" d="M210 700 Q233 700 251.5 699 Q270 698 300 690 L310 690 L330 710 L350 720 L410 720 L420 710 L420 670 L400 650 L400 640 Q434 610 458.5 573.5 Q483 537 499 491 Q515 445 522.5 388 Q530 331 530 260 Q530 132 465.5 61 Q401 -10 280 -10 Q231 -10 187.5 5.5 Q144 21 111 52.5 Q78 84 59 133.5 Q40 183 40 250 Q40 370 97.5 440 Q155 510 260 510 Q290 510 311 504 Q332 498 345 490 Q360 481 370 470 L380 470 Q365 530 320 560 L310 560 L290 540 L270 530 L210 530 L200 540 L200 580 L210 590 L210 600 Q187 608 175 609 Q163 610 140 610 L130 620 L130 630 L190 690 L210 700 Z M390 250 Q390 325 361.5 357.5 Q333 390 280 390 Q235 390 207.5 354 Q180 318 180 250 Q180 182 207.5 146 Q235 110 280 110 Q333 110 361.5 142.5 Q390 175 390 250 Z " />
<glyph glyph-name="ntilde" unicode="&#xf1;" horiz-adv-x="580" d="M520 0 L400 0 L390 10 L390 300 Q390 338 372.5 364 Q355 390 310 390 Q257 390 228.5 359 Q200 328 200 260 L200 10 L190 0 L70 0 L60 10 L60 490 L70 500 L180 500 L190 490 L200 460 L210 460 Q225 475 256 492.5 Q287 510 340 510 Q431 510 480.5 455.5 Q530 401 530 310 L530 10 L520 0 Z M360 540 Q330 540 310 551 Q290 562 275 575 Q260 588 247.5 599 Q235 610 220 610 Q205 610 197.5 601.5 Q190 593 190 570 L180 560 L130 560 L120 570 Q120 630 152.5 660 Q185 690 230 690 Q260 690 280 679 Q300 668 315 655 Q330 642 342.5 631 Q355 620 370 620 Q385 620 392.5 628.5 Q400 637 400 660 L410 670 L460 670 L470 660 Q470 600 437.5 570 Q405 540 360 540 Z " />
<glyph glyph-name="ograve" unicode="&#xf2;" horiz-adv-x="560" d="M530 250 Q530 190 512 142 Q494 94 461 60 Q428 26 382 8 Q336 -10 280 -10 Q224 -10 178 8 Q132 26 99 60 Q66 94 48 142 Q30 190 30 250 Q30 310 48 358 Q66 406 99 440 Q132 474 178 492 Q224 510 280 510 Q336 510 382 492 Q428 474 461 440 Q494 406 512 358 Q530 310 530 250 Z M390 250 Q390 318 361.5 354 Q333 390 280 390 Q227 390 198.5 354 Q170 318 170 250 Q170 182 198.5 146 Q227 110 280 110 Q333 110 361.5 146 Q390 182 390 250 Z M370 560 L280 560 L260 570 L150 670 L150 690 L160 700 L260 700 L280 690 L380 590 L380 570 L370 560 Z " />
<glyph glyph-name="oacute" unicode="&#xf3;" horiz-adv-x="560" d="M530 250 Q530 190 512 142 Q494 94 461 60 Q428 26 382 8 Q336 -10 280 -10 Q224 -10 178 8 Q132 26 99 60 Q66 94 48 142 Q30 190 30 250 Q30 310 48 358 Q66 406 99 440 Q132 474 178 492 Q224 510 280 510 Q336 510 382 492 Q428 474 461 440 Q494 406 512 358 Q530 310 530 250 Z M390 250 Q390 318 361.5 354 Q333 390 280 390 Q227 390 198.5 354 Q170 318 170 250 Q170 182 198.5 146 Q227 110 280 110 Q333 110 361.5 146 Q390 182 390 250 Z M300 570 L280 560 L190 560 L180 570 L180 590 L280 690 L300 700 L400 700 L410 690 L410 670 L300 570 Z " />
<glyph glyph-name="ocircumflex" unicode="&#xf4;" horiz-adv-x="560" d="M530 250 Q530 190 512 142 Q494 94 461 60 Q428 26 382 8 Q336 -10 280 -10 Q224 -10 178 8 Q132 26 99 60 Q66 94 48 142 Q30 190 30 250 Q30 310 48 358 Q66 406 99 440 Q132 474 178 492 Q224 510 280 510 Q336 510 382 492 Q428 474 461 440 Q494 406 512 358 Q530 310 530 250 Z M390 250 Q390 318 361.5 354 Q333 390 280 390 Q227 390 198.5 354 Q170 318 170 250 Q170 182 198.5 146 Q227 110 280 110 Q333 110 361.5 146 Q390 182 390 250 Z M440 560 L360 560 L340 570 L280 620 L260 620 L200 570 L180 560 L100 560 L90 570 L90 590 L190 690 L210 700 L330 700 L350 690 L450 590 L450 570 L440 560 Z " />
<glyph glyph-name="otilde" unicode="&#xf5;" horiz-adv-x="560" d="M530 250 Q530 190 512 142 Q494 94 461 60 Q428 26 382 8 Q336 -10 280 -10 Q224 -10 178 8 Q132 26 99 60 Q66 94 48 142 Q30 190 30 250 Q30 310 48 358 Q66 406 99 440 Q132 474 178 492 Q224 510 280 510 Q336 510 382 492 Q428 474 461 440 Q494 406 512 358 Q530 310 530 250 Z M390 250 Q390 318 361.5 354 Q333 390 280 390 Q227 390 198.5 354 Q170 318 170 250 Q170 182 198.5 146 Q227 110 280 110 Q333 110 361.5 146 Q390 182 390 250 Z M340 540 Q310 540 290 551 Q270 562 255 575 Q240 588 227.5 599 Q215 610 200 610 Q185 610 177.5 601.5 Q170 593 170 570 L160 560 L110 560 L100 570 Q100 630 132.5 660 Q165 690 210 690 Q240 690 260 679 Q280 668 295 655 Q310 642 322.5 631 Q335 620 350 620 Q365 620 372.5 628.5 Q380 637 380 660 L390 670 L440 670 L450 660 Q450 600 417.5 570 Q385 540 340 540 Z " />
<glyph glyph-name="odieresis" unicode="&#xf6;" horiz-adv-x="560" d="M530 250 Q530 190 512 142 Q494 94 461 60 Q428 26 382 8 Q336 -10 280 -10 Q224 -10 178 8 Q132 26 99 60 Q66 94 48 142 Q30 190 30 250 Q30 310 48 358 Q66 406 99 440 Q132 474 178 492 Q224 510 280 510 Q336 510 382 492 Q428 474 461 440 Q494 406 512 358 Q530 310 530 250 Z M390 250 Q390 318 361.5 354 Q333 390 280 390 Q227 390 198.5 354 Q170 318 170 250 Q170 182 198.5 146 Q227 110 280 110 Q333 110 361.5 146 Q390 182 390 250 Z M440 580 L330 580 L320 590 L320 690 L330 700 L440 700 L450 690 L450 590 L440 580 Z M230 580 L120 580 L110 590 L110 690 L120 700 L230 700 L240 690 L240 590 L230 580 Z " />
<glyph glyph-name="divide" unicode="&#xf7;" horiz-adv-x="600" d="M530 180 L70 180 L60 190 L60 300 L70 310 L530 310 L540 300 L540 190 L530 180 Z M370 370 L230 370 L220 380 L220 480 L230 490 L370 490 L380 480 L380 380 L370 370 Z M370 0 L230 0 L220 10 L220 110 L230 120 L370 120 L380 110 L380 10 L370 0 Z " />
<glyph glyph-name="oslash" unicode="&#xf8;" horiz-adv-x="560" d="M530 250 Q530 190 512 142 Q494 94 461 60 Q428 26 382 8 Q336 -10 280 -10 Q227 -10 188.5 3.5 Q150 17 120 40 L110 40 L90 20 L70 10 L60 10 L50 20 L50 70 L70 90 L70 100 Q47 130 38.5 171 Q30 212 30 250 Q30 310 48 358 Q66 406 99 440 Q132 474 178 492 Q224 510 280 510 Q333 510 371.5 496.5 Q410 483 440 460 L450 460 L470 480 L490 490 L500 490 L510 480 L510 430 L490 410 L490 400 Q513 370 521.5 329 Q530 288 530 250 Z M350 360 L350 370 Q342 378 326 384 Q310 390 280 390 Q227 390 198.5 354 Q170 318 170 250 L170 200 L180 200 L350 360 Z M210 140 L210 130 Q218 122 234 116 Q250 110 280 110 Q333 110 361.5 146 Q390 182 390 250 L390 300 L380 300 L210 140 Z " />
<glyph glyph-name="ugrave" unicode="&#xf9;" horiz-adv-x="570" d="M60 500 L180 500 L190 490 L190 200 Q190 162 207.5 136 Q225 110 270 110 Q323 110 346.5 143.5 Q370 177 370 230 L370 490 L380 500 L500 500 L510 490 L510 10 L500 0 L390 0 L380 10 L370 40 L360 40 Q350 26 334 15 Q319 5 296.5 -2.5 Q274 -10 240 -10 Q149 -10 99.5 44.5 Q50 99 50 190 L50 490 L60 500 Z M370 560 L280 560 L260 570 L150 670 L150 690 L160 700 L260 700 L280 690 L380 590 L380 570 L370 560 Z " />
<glyph glyph-name="uacute" unicode="&#xfa;" horiz-adv-x="570" d="M60 500 L180 500 L190 490 L190 200 Q190 162 207.5 136 Q225 110 270 110 Q323 110 346.5 143.5 Q370 177 370 230 L370 490 L380 500 L500 500 L510 490 L510 10 L500 0 L390 0 L380 10 L370 40 L360 40 Q350 26 334 15 Q319 5 296.5 -2.5 Q274 -10 240 -10 Q149 -10 99.5 44.5 Q50 99 50 190 L50 490 L60 500 Z M300 570 L280 560 L190 560 L180 570 L180 590 L280 690 L300 700 L400 700 L410 690 L410 670 L300 570 Z " />
<glyph glyph-name="ucircumflex" unicode="&#xfb;" horiz-adv-x="570" d="M60 500 L180 500 L190 490 L190 200 Q190 162 207.5 136 Q225 110 270 110 Q323 110 346.5 143.5 Q370 177 370 230 L370 490 L380 500 L500 500 L510 490 L510 10 L500 0 L390 0 L380 10 L370 40 L360 40 Q350 26 334 15 Q319 5 296.5 -2.5 Q274 -10 240 -10 Q149 -10 99.5 44.5 Q50 99 50 190 L50 490 L60 500 Z M450 560 L370 560 L350 570 L290 620 L270 620 L210 570 L190 560 L110 560 L100 570 L100 590 L200 690 L220 700 L340 700 L360 690 L460 590 L460 570 L450 560 Z " />
<glyph glyph-name="udieresis" unicode="&#xfc;" horiz-adv-x="570" d="M60 500 L180 500 L190 490 L190 200 Q190 162 207.5 136 Q225 110 270 110 Q323 110 346.5 143.5 Q370 177 370 230 L370 490 L380 500 L500 500 L510 490 L510 10 L500 0 L390 0 L380 10 L370 40 L360 40 Q350 26 334 15 Q319 5 296.5 -2.5 Q274 -10 240 -10 Q149 -10 99.5 44.5 Q50 99 50 190 L50 490 L60 500 Z M440 580 L330 580 L320 590 L320 690 L330 700 L440 700 L450 690 L450 590 L440 580 Z M230 580 L120 580 L110 590 L110 690 L120 700 L230 700 L240 690 L240 590 L230 580 Z " />
<glyph glyph-name="yacute" unicode="&#xfd;" horiz-adv-x="530" d="M340 -10 Q325 -48 308.5 -77.5 Q292 -107 267.5 -127.5 Q243 -148 208 -159 Q173 -170 120 -170 L70 -170 L60 -160 L60 -60 L70 -50 L120 -50 Q158 -50 170.5 -41.5 Q183 -33 190 -10 L190 0 L30 390 L30 490 L40 500 L130 500 L140 490 L260 150 L270 150 L390 490 L400 500 L490 500 L500 490 L500 390 L340 -10 Z M290 570 L270 560 L180 560 L170 570 L170 590 L270 690 L290 700 L390 700 L400 690 L400 670 L290 570 Z " />
<glyph glyph-name="thorn" unicode="&#xfe;" horiz-adv-x="600" d="M560 250 Q560 190 542.5 142 Q525 94 495 60 Q465 26 425 8 Q385 -10 340 -10 Q306 -10 281.5 -2 Q257 6 241 15 Q223 26 210 40 L200 40 L200 -190 L190 -200 L70 -200 L60 -190 L60 690 L70 700 L190 700 L200 690 L200 460 L210 460 Q223 474 241 485 Q258 495 282 502.5 Q306 510 340 510 Q385 510 425 492 Q465 474 495 440 Q525 406 542.5 358 Q560 310 560 250 Z M420 250 Q420 310 395 350 Q370 390 310 390 Q250 390 225 350 Q200 310 200 250 Q200 190 225 150 Q250 110 310 110 Q370 110 395 150 Q420 190 420 250 Z " />
<glyph glyph-name="ydieresis" unicode="&#xff;" horiz-adv-x="530" d="M340 -10 Q325 -48 308.5 -77.5 Q292 -107 267.5 -127.5 Q243 -148 208 -159 Q173 -170 120 -170 L70 -170 L60 -160 L60 -60 L70 -50 L120 -50 Q158 -50 170.5 -41.5 Q183 -33 190 -10 L190 0 L30 390 L30 490 L40 500 L130 500 L140 490 L260 150 L270 150 L390 490 L400 500 L490 500 L500 490 L500 390 L340 -10 Z M430 580 L320 580 L310 590 L310 690 L320 700 L430 700 L440 690 L440 590 L430 580 Z M210 580 L100 580 L90 590 L90 690 L100 700 L210 700 L220 690 L220 590 L210 580 Z " />
<glyph glyph-name="dotlessi" unicode="&#x131;" horiz-adv-x="260" d="M190 0 L70 0 L60 10 L60 490 L70 500 L190 500 L200 490 L200 10 L190 0 Z " />
<glyph glyph-name="Lslash" unicode="&#x141;" horiz-adv-x="570" d="M80 120 L40 90 L10 90 L0 100 L0 200 L80 260 L90 280 L90 690 L100 700 L220 700 L230 690 L230 380 L240 380 L400 500 L430 500 L440 490 L440 390 L240 240 L230 220 L230 130 L240 120 L550 120 L560 110 L560 10 L550 0 L100 0 L90 10 L90 120 L80 120 Z " />
<glyph glyph-name="lslash" unicode="&#x142;" horiz-adv-x="250" d="M60 210 L20 180 L-10 180 L-20 190 L-20 290 L60 350 L70 370 L70 690 L80 700 L200 700 L210 690 L210 470 L220 470 L260 500 L290 500 L300 490 L300 390 L220 330 L210 310 L210 10 L200 0 L80 0 L70 10 L70 210 L60 210 Z " />
<glyph glyph-name="OE" unicode="&#x152;" horiz-adv-x="1030" d="M510 40 L500 40 Q477 17 435 3.5 Q393 -10 340 -10 Q280 -10 224 9.5 Q168 29 125 72.5 Q82 116 56 184.5 Q30 253 30 350 Q30 448 56 516 Q82 584 125 627.5 Q168 671 224 690.5 Q280 710 340 710 Q393 710 435 696.5 Q477 683 500 660 L510 660 L510 690 L520 700 L960 700 L970 690 L970 590 L960 580 L660 580 L650 570 L650 430 L660 420 L940 420 L950 410 L950 310 L940 300 L660 300 L650 290 L650 130 L660 120 L960 120 L970 110 L970 10 L960 0 L520 0 L510 10 L510 40 Z M510 510 Q495 548 456.5 569 Q418 590 350 590 Q253 590 211.5 526.5 Q170 463 170 350 Q170 238 211.5 174 Q253 110 350 110 Q418 110 456.5 131 Q495 152 510 190 L510 510 Z " />
<glyph glyph-name="oe" unicode="&#x153;" horiz-adv-x="890" d="M860 210 L850 200 L540 200 L530 190 Q530 183 534.5 169.5 Q539 156 550 142.5 Q561 129 580.5 119.5 Q600 110 630 110 Q653 110 672.5 117.5 Q692 125 700 140 L710 150 L830 150 L840 140 Q836 118 824 91.5 Q812 65 787.5 42.5 Q763 20 724.5 5 Q686 -10 630 -10 Q562 -10 522.5 8.5 Q483 27 460 50 L450 50 Q427 27 383.5 8.5 Q340 -10 280 -10 Q224 -10 178 8 Q132 26 99 60 Q66 94 48 142 Q30 190 30 250 Q30 310 48 358 Q66 406 99 440 Q132 474 178 492 Q224 510 280 510 Q340 510 383.5 491.5 Q427 473 450 450 L460 450 Q483 473 521.5 491.5 Q560 510 620 510 Q680 510 725 489 Q770 468 800 432.5 Q830 397 845 350 Q860 303 860 250 L860 210 Z M390 250 Q390 318 361.5 354 Q333 390 280 390 Q227 390 198.5 354 Q170 318 170 250 Q170 182 198.5 146 Q227 110 280 110 Q333 110 361.5 146 Q390 182 390 250 Z M710 310 Q710 314 707 327 Q704 340 695 354 Q686 368 668 379 Q650 390 620 390 Q590 390 572 379 Q554 368 545 354 Q536 340 533 327 Q530 314 530 310 L540 300 L700 300 L710 310 Z " />
<glyph glyph-name="Scaron" unicode="&#x160;" horiz-adv-x="660" d="M620 200 Q620 159 604 121 Q588 83 553.5 54 Q519 25 464 7.5 Q409 -10 330 -10 Q255 -10 200.5 7.5 Q146 25 110 56 Q74 87 57 129 Q40 171 40 220 L50 230 L170 230 L180 220 Q180 168 215 139 Q250 110 340 110 Q408 110 444 132.5 Q480 155 480 200 Q480 226 471.5 244 Q463 262 442.5 274 Q422 286 387.5 294.5 Q353 303 300 310 Q248 318 202 332 Q156 346 122.5 370 Q89 394 69.5 431 Q50 468 50 520 Q50 558 65.5 592 Q81 626 114 652.5 Q147 679 198 694.5 Q249 710 320 710 Q391 710 442 694 Q493 678 526 650 Q559 622 574.5 583.5 Q590 545 590 500 L580 490 L460 490 L450 500 Q450 523 443.5 539.5 Q437 556 421 567.5 Q405 579 378 584.5 Q351 590 310 590 Q243 590 216.5 570 Q190 550 190 520 Q190 498 198.5 482 Q207 466 227.5 455 Q248 444 283 436 Q318 428 370 420 Q423 413 468.5 397 Q514 381 547.5 355 Q581 329 600.5 291 Q620 253 620 200 Z M150 900 L230 900 L250 890 L310 840 L330 840 L390 890 L410 900 L490 900 L500 890 L500 870 L400 770 L380 760 L260 760 L240 770 L140 870 L140 890 L150 900 Z " />
<glyph glyph-name="scaron" unicode="&#x161;" horiz-adv-x="500" d="M470 150 Q470 120 458 91.5 Q446 63 420 40.5 Q394 18 352 4 Q310 -10 250 -10 Q144 -10 87 37.5 Q30 85 30 160 L40 170 L160 170 L170 160 Q170 130 191 120 Q212 110 250 110 Q288 110 309 118.5 Q330 127 330 150 Q330 165 323 173.5 Q316 182 302.5 186.5 Q289 191 271 193.5 Q253 196 230 200 Q208 204 175.5 212.5 Q143 221 113 239 Q83 257 61.5 286 Q40 315 40 360 Q40 390 51.5 417 Q63 444 88.5 465 Q114 486 154 498 Q194 510 250 510 Q295 510 333.5 500.5 Q372 491 400 472.5 Q428 454 444 426 Q460 398 460 360 L450 350 L330 350 L320 360 Q320 375 304 382.5 Q288 390 250 390 Q212 390 196 381.5 Q180 373 180 350 Q180 335 190.5 326.5 Q201 318 217.5 313.5 Q234 309 256 306.5 Q278 304 300 300 Q323 296 352 289 Q381 282 407.5 266 Q434 250 452 222.5 Q470 195 470 150 Z M80 700 L160 700 L180 690 L240 640 L260 640 L320 690 L340 700 L420 700 L430 690 L430 670 L330 570 L310 560 L190 560 L170 570 L70 670 L70 690 L80 700 Z " />
<glyph glyph-name="Ydieresis" unicode="&#x178;" horiz-adv-x="600" d="M370 260 L370 10 L360 0 L240 0 L230 10 L230 260 L30 590 L30 690 L40 700 L110 700 L130 690 L290 420 L310 420 L470 690 L490 700 L560 700 L570 690 L570 590 L370 260 Z M460 780 L350 780 L340 790 L340 890 L350 900 L460 900 L470 890 L470 790 L460 780 Z M250 780 L140 780 L130 790 L130 890 L140 900 L250 900 L260 890 L260 790 L250 780 Z " />
<glyph glyph-name="Zcaron" unicode="&#x17d;" horiz-adv-x="620" d="M560 0 L60 0 L50 10 L50 120 L60 140 L380 570 L380 580 L70 580 L60 590 L60 690 L70 700 L540 700 L550 690 L550 580 L540 560 L220 130 L220 120 L560 120 L570 110 L570 10 L560 0 Z M140 900 L220 900 L240 890 L300 840 L320 840 L380 890 L400 900 L480 900 L490 890 L490 870 L390 770 L370 760 L250 760 L230 770 L130 870 L130 890 L140 900 Z " />
<glyph glyph-name="zcaron" unicode="&#x17e;" horiz-adv-x="520" d="M470 0 L50 0 L40 10 L40 120 L50 140 L280 370 L280 380 L60 380 L50 390 L50 490 L60 500 L460 500 L470 490 L470 380 L460 360 L230 130 L230 120 L470 120 L480 110 L480 10 L470 0 Z M90 700 L170 700 L190 690 L250 640 L270 640 L330 690 L350 700 L430 700 L440 690 L440 670 L340 570 L320 560 L200 560 L180 570 L80 670 L80 690 L90 700 Z " />
<glyph glyph-name="florin" unicode="&#x192;" horiz-adv-x="620" d="M260 390 L250 400 L170 400 L160 410 L160 490 L170 500 L270 500 L280 510 Q291 574 310 611.5 Q329 649 355 668.5 Q381 688 415 694 Q449 700 490 700 L550 700 L560 690 L560 590 L550 580 L500 580 Q478 580 464 577.5 Q450 575 441.5 567.5 Q433 560 428.5 546.5 Q424 533 420 510 L430 500 L570 500 L580 490 L580 410 L570 400 L410 400 L400 390 L340 30 Q329 -38 311.5 -82 Q294 -126 268.5 -152.5 Q243 -179 209 -189.5 Q175 -200 130 -200 L70 -200 L60 -190 L60 -90 L70 -80 L120 -80 Q143 -80 156.5 -71.5 Q170 -63 178.5 -48 Q187 -33 191.5 -12.5 Q196 8 200 30 L260 390 Z " />
<glyph glyph-name="circumflex" unicode="&#x2c6;" horiz-adv-x="500" d="M420 560 L340 560 L320 570 L260 620 L240 620 L180 570 L160 560 L80 560 L70 570 L70 590 L170 690 L190 700 L310 700 L330 690 L430 590 L430 570 L420 560 Z " />
<glyph glyph-name="caron" unicode="&#x2c7;" horiz-adv-x="500" d="M80 700 L160 700 L180 690 L240 640 L260 640 L320 690 L340 700 L420 700 L430 690 L430 670 L330 570 L310 560 L190 560 L170 570 L70 670 L70 690 L80 700 Z " />
<glyph glyph-name="uni02C9" unicode="&#x2c9;" horiz-adv-x="500" d="M420 570 L80 570 L70 580 L70 670 L80 680 L420 680 L430 670 L430 580 L420 570 Z " />
<glyph glyph-name="breve" unicode="&#x2d8;" horiz-adv-x="500" d="M180 690 Q180 660 196 645 Q212 630 250 630 Q288 630 304 645 Q320 660 320 690 L330 700 L390 700 L400 690 Q400 630 362.5 590 Q325 550 250 550 Q175 550 137.5 590 Q100 630 100 690 L110 700 L170 700 L180 690 Z " />
<glyph glyph-name="dotaccent" unicode="&#x2d9;" horiz-adv-x="500" d="M310 580 L190 580 L180 590 L180 690 L190 700 L310 700 L320 690 L320 590 L310 580 Z " />
<glyph glyph-name="ring" unicode="&#x2da;" horiz-adv-x="500" d="M290 630 Q290 645 281.5 652.5 Q273 660 250 660 Q227 660 218.5 652.5 Q210 645 210 630 Q210 615 218.5 607.5 Q227 600 250 600 Q273 600 281.5 607.5 Q290 615 290 630 Z M140 630 Q140 675 172.5 697.5 Q205 720 250 720 Q295 720 327.5 697.5 Q360 675 360 630 Q360 585 327.5 562.5 Q295 540 250 540 Q205 540 172.5 562.5 Q140 585 140 630 Z " />
<glyph glyph-name="ogonek" unicode="&#x2db;" horiz-adv-x="500" d="M330 0 Q285 -8 257.5 -29 Q230 -50 230 -80 Q230 -103 243.5 -111.5 Q257 -120 280 -120 Q291 -120 300.5 -118.5 Q310 -117 316 -115 Q324 -113 330 -110 L340 -120 L340 -180 L330 -190 Q324 -196 313 -200 Q303 -204 288 -207 Q273 -210 250 -210 Q190 -210 155 -181.5 Q120 -153 120 -100 Q120 -62 146 -35 Q172 -8 210 0 L330 0 Z " />
<glyph glyph-name="tilde" unicode="&#x2dc;" horiz-adv-x="500" d="M310 540 Q280 540 260 551 Q240 562 225 575 Q210 588 197.5 599 Q185 610 170 610 Q155 610 147.5 601.5 Q140 593 140 570 L130 560 L80 560 L70 570 Q70 630 102.5 660 Q135 690 180 690 Q210 690 230 679 Q250 668 265 655 Q280 642 292.5 631 Q305 620 320 620 Q335 620 342.5 628.5 Q350 637 350 660 L360 670 L410 670 L420 660 Q420 600 387.5 570 Q355 540 310 540 Z " />
<glyph glyph-name="hungarumlaut" unicode="&#x2dd;" horiz-adv-x="500" d="M140 570 L120 560 L30 560 L20 570 L20 590 L120 690 L140 700 L240 700 L250 690 L250 670 L140 570 Z M380 570 L360 560 L270 560 L260 570 L260 590 L360 690 L380 700 L480 700 L490 690 L490 670 L380 570 Z " />
<glyph glyph-name="uni0394" unicode="&#x394;" horiz-adv-x="620" d="M30 10 L30 110 L230 690 L240 700 L380 700 L390 690 L590 110 L590 10 L580 0 L40 0 L30 10 Z M180 130 L180 120 L440 120 L440 130 L320 530 L300 530 L180 130 Z " />
<glyph glyph-name="uni03A9" unicode="&#x3a9;" horiz-adv-x="780" d="M190 130 Q153 168 126 196.5 Q99 225 82.5 254 Q66 283 58 317 Q50 351 50 400 Q50 479 78 537 Q106 595 152.5 633.5 Q199 672 261 691 Q323 710 390 710 Q458 710 519.5 691 Q581 672 627.5 633.5 Q674 595 702 537 Q730 479 730 400 Q730 351 722 317 Q714 283 697.5 254 Q681 225 654.5 196.5 Q628 168 590 130 L590 120 L700 120 L710 110 L710 10 L700 0 L450 0 L440 10 L440 120 L450 140 Q488 178 514.5 206 Q541 234 557.5 261 Q574 288 582 318.5 Q590 349 590 390 Q590 446 574 484.5 Q558 523 531 546.5 Q504 570 467.5 580 Q431 590 390 590 Q349 590 312.5 580 Q276 570 249 546.5 Q222 523 206 484.5 Q190 446 190 390 Q190 349 198 318.5 Q206 288 222.5 261 Q239 234 266 206 Q293 178 330 140 L340 120 L340 10 L330 0 L80 0 L70 10 L70 110 L80 120 L190 120 L190 130 Z " />
<glyph glyph-name="uni03BC" unicode="&#x3bc;" horiz-adv-x="640" d="M410 30 Q401 19 388 10 Q375 2 359 -4 Q343 -10 320 -10 Q297 -10 280.5 -4 Q264 2 253 10 Q239 19 230 30 L220 30 L220 -190 L210 -200 L90 -200 L80 -190 L80 490 L90 500 L210 500 L220 490 L220 240 Q220 187 243.5 153.5 Q267 120 320 120 Q373 120 396.5 153.5 Q420 187 420 240 L420 490 L430 500 L550 500 L560 490 L560 10 L550 0 L440 0 L430 10 L420 30 L410 30 Z " />
<glyph glyph-name="pi" unicode="&#x3c0;" horiz-adv-x="640" d="M570 0 L370 0 L360 10 L360 370 L350 380 L280 380 L270 370 L270 10 L260 0 L140 0 L130 10 L130 370 L120 380 L60 380 L50 390 L50 490 L60 500 L580 500 L590 490 L590 390 L580 380 L510 380 L500 370 L500 130 L510 120 L570 120 L580 110 L580 10 L570 0 Z " />
<glyph glyph-name="endash" unicode="&#x2013;" horiz-adv-x="620" d="M550 200 L70 200 L60 210 L60 310 L70 320 L550 320 L560 310 L560 210 L550 200 Z " />
<glyph glyph-name="emdash" unicode="&#x2014;" horiz-adv-x="1120" d="M1050 200 L70 200 L60 210 L60 310 L70 320 L1050 320 L1060 310 L1060 210 L1050 200 Z " />
<glyph glyph-name="quoteleft" unicode="&#x2018;" horiz-adv-x="320" d="M80 590 L160 690 L180 700 L240 700 L240 680 L180 580 L180 570 L190 560 L220 560 L230 550 L230 420 L220 410 L80 410 L70 420 L70 560 L80 590 Z " />
<glyph glyph-name="quoteright" unicode="&#x2019;" horiz-adv-x="320" d="M240 520 L160 420 L140 410 L80 410 L80 430 L140 530 L140 540 L130 550 L100 550 L90 560 L90 690 L100 700 L240 700 L250 690 L250 550 L240 520 Z " />
<glyph glyph-name="quotesinglbase" unicode="&#x201a;" horiz-adv-x="320" d="M230 -30 L150 -130 L130 -140 L70 -140 L70 -120 L130 -20 L130 -10 L120 0 L90 0 L80 10 L80 140 L90 150 L230 150 L240 140 L240 0 L230 -30 Z " />
<glyph glyph-name="quotedblleft" unicode="&#x201c;" horiz-adv-x="560" d="M320 590 L400 690 L420 700 L480 700 L480 680 L420 580 L420 570 L430 560 L460 560 L470 550 L470 420 L460 410 L320 410 L310 420 L310 560 L320 590 Z M80 590 L160 690 L180 700 L240 700 L240 680 L180 580 L180 570 L190 560 L220 560 L230 550 L230 420 L220 410 L80 410 L70 420 L70 560 L80 590 Z " />
<glyph glyph-name="quotedblright" unicode="&#x201d;" horiz-adv-x="560" d="M240 520 L160 420 L140 410 L80 410 L80 430 L140 530 L140 540 L130 550 L100 550 L90 560 L90 690 L100 700 L240 700 L250 690 L250 550 L240 520 Z M480 520 L400 420 L380 410 L320 410 L320 430 L380 530 L380 540 L370 550 L340 550 L330 560 L330 690 L340 700 L480 700 L490 690 L490 550 L480 520 Z " />
<glyph glyph-name="quotedblbase" unicode="&#x201e;" horiz-adv-x="560" d="M230 -30 L150 -130 L130 -140 L70 -140 L70 -120 L130 -20 L130 -10 L120 0 L90 0 L80 10 L80 140 L90 150 L230 150 L240 140 L240 0 L230 -30 Z M470 -30 L390 -130 L370 -140 L310 -140 L310 -120 L370 -20 L370 -10 L360 0 L330 0 L320 10 L320 140 L330 150 L470 150 L480 140 L480 0 L470 -30 Z " />
<glyph glyph-name="dagger" unicode="&#x2020;" horiz-adv-x="620" d="M370 -200 L250 -200 L240 -190 L240 370 L230 380 L50 380 L40 390 L40 490 L50 500 L230 500 L240 510 L240 690 L250 700 L370 700 L380 690 L380 510 L390 500 L570 500 L580 490 L580 390 L570 380 L390 380 L380 370 L380 -190 L370 -200 Z " />
<glyph glyph-name="daggerdbl" unicode="&#x2021;" horiz-adv-x="620" d="M250 700 L370 700 L380 690 L380 510 L390 500 L570 500 L580 490 L580 390 L570 380 L390 380 L380 370 L380 130 L390 120 L570 120 L580 110 L580 10 L570 0 L390 0 L380 -10 L380 -190 L370 -200 L250 -200 L240 -190 L240 -10 L230 0 L50 0 L40 10 L40 110 L50 120 L230 120 L240 130 L240 370 L230 380 L50 380 L40 390 L40 490 L50 500 L230 500 L240 510 L240 690 L250 700 Z " />
<glyph glyph-name="bullet" unicode="&#x2022;" horiz-adv-x="470" d="M390 250 L240 100 L230 100 L80 250 L80 260 L230 410 L240 410 L390 260 L390 250 Z " />
<glyph glyph-name="ellipsis" unicode="&#x2026;" horiz-adv-x="840" d="M230 0 L90 0 L80 10 L80 140 L90 150 L230 150 L240 140 L240 10 L230 0 Z M490 0 L350 0 L340 10 L340 140 L350 150 L490 150 L500 140 L500 10 L490 0 Z M750 0 L610 0 L600 10 L600 140 L610 150 L750 150 L760 140 L760 10 L750 0 Z " />
<glyph glyph-name="perthousand" unicode="&#x2030;" horiz-adv-x="1170" d="M220 330 Q175 330 141.5 344 Q108 358 85.5 383.5 Q63 409 51.5 444 Q40 479 40 520 Q40 561 51.5 596 Q63 631 85.5 656.5 Q108 682 141.5 696 Q175 710 220 710 Q265 710 299 696 Q333 682 355.5 656.5 Q378 631 389 596 Q400 561 400 520 Q400 479 389 444 Q378 409 355.5 383.5 Q333 358 299 344 Q265 330 220 330 Z M320 10 L310 0 L250 0 L240 10 L240 110 L620 690 L630 700 L690 700 L700 690 L700 590 L320 10 Z M170 520 Q170 475 183.5 457.5 Q197 440 220 440 Q243 440 256.5 457.5 Q270 475 270 520 Q270 565 256.5 582.5 Q243 600 220 600 Q197 600 183.5 582.5 Q170 565 170 520 Z M770 180 Q770 225 756.5 242.5 Q743 260 720 260 Q697 260 683.5 242.5 Q670 225 670 180 Q670 135 683.5 117.5 Q697 100 720 100 Q743 100 756.5 117.5 Q770 135 770 180 Z M1000 180 Q1000 225 986.5 242.5 Q973 260 950 260 Q927 260 913.5 242.5 Q900 225 900 180 Q900 135 913.5 117.5 Q927 100 950 100 Q973 100 986.5 117.5 Q1000 135 1000 180 Z M1130 180 Q1130 139 1119 104 Q1108 69 1085.5 43.5 Q1063 18 1029 4 Q995 -10 950 -10 Q912 -10 883.5 2.5 Q855 15 840 30 L830 30 Q815 15 786.5 2.5 Q758 -10 720 -10 Q675 -10 641.5 4 Q608 18 585.5 43.5 Q563 69 551.5 104 Q540 139 540 180 Q540 221 551.5 256 Q563 291 585.5 316.5 Q608 342 641.5 356 Q675 370 720 370 Q758 370 786.5 357.5 Q815 345 830 330 L840 330 Q855 345 883.5 357.5 Q912 370 950 370 Q995 370 1029 356 Q1063 342 1085.5 316.5 Q1108 291 1119 256 Q1130 221 1130 180 Z " />
<glyph glyph-name="guilsinglleft" unicode="&#x2039;" horiz-adv-x="480" d="M390 30 L270 30 L250 40 L90 200 L80 220 L80 280 L90 300 L250 460 L270 470 L390 470 L400 460 L400 420 L230 260 L230 240 L400 80 L400 40 L390 30 Z " />
<glyph glyph-name="guilsinglright" unicode="&#x203a;" horiz-adv-x="480" d="M80 40 L80 80 L250 240 L250 260 L80 420 L80 460 L90 470 L210 470 L230 460 L390 300 L400 280 L400 220 L390 200 L230 40 L210 30 L90 30 L80 40 Z " />
<glyph glyph-name="fraction" unicode="&#x2044;" horiz-adv-x="620" d="M160 10 L150 0 L90 0 L80 10 L80 110 L460 690 L470 700 L530 700 L540 690 L540 590 L160 10 Z " />
<glyph glyph-name="Euro" unicode="&#x20ac;" horiz-adv-x="730" d="M290 210 L280 200 Q288 155 322.5 132.5 Q357 110 410 110 Q470 110 506 132.5 Q542 155 550 200 L560 210 L680 210 L690 200 Q682 102 610 46 Q538 -10 410 -10 Q297 -10 228.5 42 Q160 94 130 200 L120 210 L30 210 L20 220 L20 300 L30 310 L100 310 L110 320 L110 360 L100 370 L30 370 L20 380 L20 460 L30 470 L110 470 L120 480 Q143 593 216 651.5 Q289 710 410 710 Q531 710 603 658 Q675 606 690 500 L680 490 L560 490 L550 500 Q542 538 510 564 Q478 590 410 590 Q342 590 310 561.5 Q278 533 270 480 L280 470 L470 470 L480 460 L480 380 L470 370 L260 370 L250 360 L250 320 L260 310 L430 310 L440 300 L440 220 L430 210 L290 210 Z " />
<glyph glyph-name="uni2117" unicode="&#x2117;" horiz-adv-x="840" d="M500 410 Q500 440 470 440 L390 440 L380 430 L380 390 L390 380 L470 380 Q500 380 500 410 Z M390 290 L380 280 L380 180 L370 170 L290 170 L280 180 L280 520 L290 530 L470 530 Q530 530 565 500 Q600 470 600 410 Q600 350 565 320 Q530 290 470 290 L390 290 Z M60 350 Q60 425 88 490.5 Q116 556 165 605 Q214 654 279.5 682 Q345 710 420 710 Q495 710 560.5 682 Q626 654 675 605 Q724 556 752 490.5 Q780 425 780 350 Q780 275 752 209.5 Q724 144 675 95 Q626 46 560.5 18 Q495 -10 420 -10 Q345 -10 279.5 18 Q214 46 165 95 Q116 144 88 209.5 Q60 275 60 350 Z M170 350 Q170 294 188 246 Q206 198 239 163.5 Q272 129 318 109.5 Q364 90 420 90 Q476 90 522 109.5 Q568 129 601 163.5 Q634 198 652 246 Q670 294 670 350 Q670 406 652 454 Q634 502 601 536.5 Q568 571 522 590.5 Q476 610 420 610 Q364 610 318 590.5 Q272 571 239 536.5 Q206 502 188 454 Q170 406 170 350 Z " />
<glyph glyph-name="trademark" unicode="&#x2122;" horiz-adv-x="870" d="M30 700 L340 700 L350 690 L350 630 L340 620 L240 620 L230 610 L230 350 L220 340 L150 340 L140 350 L140 610 L130 620 L30 620 L20 630 L20 690 L30 700 Z M570 340 L560 350 L500 500 L490 500 L490 350 L480 340 L410 340 L400 350 L400 690 L410 700 L500 700 L510 690 L600 460 L610 460 L700 690 L710 700 L800 700 L810 690 L810 350 L800 340 L730 340 L720 350 L720 500 L710 500 L650 350 L640 340 L570 340 Z " />
<glyph glyph-name="Omega" unicode="&#x2126;" horiz-adv-x="780" d="M190 130 Q153 168 126 196.5 Q99 225 82.5 254 Q66 283 58 317 Q50 351 50 400 Q50 479 78 537 Q106 595 152.5 633.5 Q199 672 261 691 Q323 710 390 710 Q458 710 519.5 691 Q581 672 627.5 633.5 Q674 595 702 537 Q730 479 730 400 Q730 351 722 317 Q714 283 697.5 254 Q681 225 654.5 196.5 Q628 168 590 130 L590 120 L700 120 L710 110 L710 10 L700 0 L450 0 L440 10 L440 120 L450 140 Q488 178 514.5 206 Q541 234 557.5 261 Q574 288 582 318.5 Q590 349 590 390 Q590 446 574 484.5 Q558 523 531 546.5 Q504 570 467.5 580 Q431 590 390 590 Q349 590 312.5 580 Q276 570 249 546.5 Q222 523 206 484.5 Q190 446 190 390 Q190 349 198 318.5 Q206 288 222.5 261 Q239 234 266 206 Q293 178 330 140 L340 120 L340 10 L330 0 L80 0 L70 10 L70 110 L80 120 L190 120 L190 130 Z " />
<glyph glyph-name="arrowleft" unicode="&#x2190;" horiz-adv-x="860" d="M440 500 L450 490 L450 480 L280 310 L280 300 L770 300 L780 290 L780 210 L770 200 L280 200 L280 190 L450 20 L450 10 L440 0 L330 0 L310 10 L80 240 L80 260 L310 490 L330 500 L440 500 Z " />
<glyph glyph-name="arrowup" unicode="&#x2191;" horiz-adv-x="660" d="M80 450 L90 470 L320 700 L340 700 L570 470 L580 450 L580 340 L570 330 L560 330 L390 500 L380 500 L380 10 L370 0 L290 0 L280 10 L280 500 L270 500 L100 330 L90 330 L80 340 L80 450 Z " />
<glyph glyph-name="arrowright" unicode="&#x2192;" horiz-adv-x="860" d="M530 500 L550 490 L780 260 L780 240 L550 10 L530 0 L420 0 L410 10 L410 20 L580 190 L580 200 L90 200 L80 210 L80 290 L90 300 L580 300 L580 310 L410 480 L410 490 L420 500 L530 500 Z " />
<glyph glyph-name="arrowdown" unicode="&#x2193;" horiz-adv-x="660" d="M80 360 L90 370 L100 370 L270 200 L280 200 L280 690 L290 700 L370 700 L380 690 L380 200 L390 200 L560 370 L570 370 L580 360 L580 250 L570 230 L340 0 L320 0 L90 230 L80 250 L80 360 Z " />
<glyph glyph-name="arrowboth" unicode="&#x2194;" horiz-adv-x="1060" d="M330 0 L310 10 L80 240 L80 260 L310 490 L330 500 L440 500 L450 490 L450 480 L280 310 L280 300 L780 300 L780 310 L610 480 L610 490 L620 500 L730 500 L750 490 L980 260 L980 240 L750 10 L730 0 L620 0 L610 10 L610 20 L780 190 L780 200 L280 200 L280 190 L450 20 L450 10 L440 0 L330 0 Z " />
<glyph glyph-name="arrowupdn" unicode="&#x2195;" horiz-adv-x="660" d="M580 50 L570 30 L340 -200 L320 -200 L90 30 L80 50 L80 160 L90 170 L100 170 L270 0 L280 0 L280 500 L270 500 L100 330 L90 330 L80 340 L80 450 L90 470 L320 700 L340 700 L570 470 L580 450 L580 340 L570 330 L560 330 L390 500 L380 500 L380 0 L390 0 L560 170 L570 170 L580 160 L580 50 Z " />
<glyph glyph-name="uni2196" unicode="&#x2196;" horiz-adv-x="700" d="M90 340 L80 360 L80 680 L100 700 L420 700 L440 690 L510 620 L510 610 L500 600 L270 600 L270 590 L620 240 L620 230 L550 160 L540 160 L190 510 L180 510 L180 280 L170 270 L160 270 L90 340 Z " />
<glyph glyph-name="uni2197" unicode="&#x2197;" horiz-adv-x="700" d="M540 270 L530 270 L520 280 L520 510 L510 510 L160 160 L150 160 L80 230 L80 240 L430 590 L430 600 L200 600 L190 610 L190 620 L260 690 L280 700 L600 700 L620 680 L620 360 L610 340 L540 270 Z " />
<glyph glyph-name="uni2198" unicode="&#x2198;" horiz-adv-x="700" d="M160 430 L170 430 L180 420 L180 190 L190 190 L540 540 L550 540 L620 470 L620 460 L270 110 L270 100 L500 100 L510 90 L510 80 L440 10 L420 0 L100 0 L80 20 L80 340 L90 360 L160 430 Z " />
<glyph glyph-name="uni2199" unicode="&#x2199;" horiz-adv-x="700" d="M610 360 L620 340 L620 20 L600 0 L280 0 L260 10 L190 80 L190 90 L200 100 L430 100 L430 110 L80 460 L80 470 L150 540 L160 540 L510 190 L520 190 L520 420 L530 430 L540 430 L610 360 Z " />
<glyph glyph-name="partialdiff" unicode="&#x2202;" horiz-adv-x="620" d="M150 690 Q162 696 179 700 Q194 704 214 707 Q234 710 260 710 Q343 710 400 680.5 Q457 651 492.5 594 Q528 537 544 453 Q560 369 560 260 Q560 193 542 142 Q524 91 491 57.5 Q458 24 412 7 Q366 -10 310 -10 Q261 -10 217.5 5.5 Q174 21 141 52.5 Q108 84 89 133.5 Q70 183 70 250 Q70 370 127.5 440 Q185 510 290 510 Q320 510 341 504 Q362 498 375 490 Q390 481 400 470 L410 470 Q410 481 405 504.5 Q400 528 384 551.5 Q368 575 338.5 592.5 Q309 610 260 610 Q234 610 213.5 607 Q193 604 179 600 Q162 596 150 590 L140 600 L140 680 L150 690 Z M420 250 Q420 325 391.5 357.5 Q363 390 310 390 Q257 390 233.5 354 Q210 318 210 250 Q210 182 237.5 146 Q265 110 310 110 Q363 110 391.5 142.5 Q420 175 420 250 Z " />
<glyph glyph-name="Delta" unicode="&#x2206;" horiz-adv-x="620" d="M30 10 L30 110 L230 690 L240 700 L380 700 L390 690 L590 110 L590 10 L580 0 L40 0 L30 10 Z M180 130 L180 120 L440 120 L440 130 L320 530 L300 530 L180 130 Z " />
<glyph glyph-name="product" unicode="&#x220f;" horiz-adv-x="640" d="M500 -200 L380 -200 L370 -190 L370 570 L360 580 L280 580 L270 570 L270 -190 L260 -200 L140 -200 L130 -190 L130 570 L120 580 L50 580 L40 590 L40 690 L50 700 L590 700 L600 690 L600 590 L590 580 L520 580 L510 570 L510 -190 L500 -200 Z " />
<glyph glyph-name="summation" unicode="&#x2211;" horiz-adv-x="620" d="M580 0 L580 -190 L570 -200 L50 -200 L40 -190 L40 -80 L50 -60 L290 250 L290 260 L50 560 L40 580 L40 690 L50 700 L560 700 L570 690 L570 510 L560 500 L440 500 L430 510 L430 570 L420 580 L210 580 L210 570 L410 320 L420 300 L420 210 L410 190 L210 -70 L210 -80 L430 -80 L440 -70 L440 0 L450 10 L570 10 L580 0 Z " />
<glyph glyph-name="minus" unicode="&#x2212;" horiz-adv-x="560" d="M490 200 L70 200 L60 210 L60 310 L70 320 L490 320 L500 310 L500 210 L490 200 Z " />
<glyph glyph-name="uni2215" unicode="&#x2215;" horiz-adv-x="620" d="M160 10 L150 0 L90 0 L80 10 L80 110 L460 690 L470 700 L530 700 L540 690 L540 590 L160 10 Z " />
<glyph glyph-name="uni2219" unicode="&#x2219;" horiz-adv-x="320" d="M230 190 L90 190 L80 200 L80 330 L90 340 L230 340 L240 330 L240 200 L230 190 Z " />
<glyph glyph-name="radical" unicode="&#x221a;" horiz-adv-x="600" d="M370 690 L390 700 L560 700 L570 690 L570 590 L560 580 L480 580 L460 570 L280 10 L270 0 L170 0 L160 10 L40 390 L40 490 L50 500 L140 500 L150 490 L220 230 L230 230 L370 690 Z " />
<glyph glyph-name="infinity" unicode="&#x221e;" horiz-adv-x="710" d="M350 230 Q335 215 316.5 197.5 Q298 180 276.5 165 Q255 150 230.5 140 Q206 130 180 130 Q120 130 80 165 Q40 200 40 260 Q40 320 80 355 Q120 390 180 390 Q206 390 230.5 380 Q255 370 276.5 355 Q298 340 316.5 322.5 Q335 305 350 290 L360 290 Q375 305 393.5 322.5 Q412 340 433.5 355 Q455 370 479.5 380 Q504 390 530 390 Q590 390 630 355 Q670 320 670 260 Q670 200 630 165 Q590 130 530 130 Q504 130 479.5 140 Q455 150 433.5 165 Q412 180 393.5 197.5 Q375 215 360 230 L350 230 Z M180 360 Q135 360 107.5 332.5 Q80 305 80 260 Q80 215 107.5 187.5 Q135 160 180 160 Q203 160 223.5 168.5 Q244 177 262.5 190 Q281 203 298 219 Q315 235 330 250 L330 270 Q315 285 298 301 Q281 317 262.5 330 Q244 343 223.5 351.5 Q203 360 180 360 Z M530 360 Q508 360 487 351.5 Q466 343 447.5 330 Q429 317 412 301 Q395 285 380 270 L380 250 Q395 235 412 219 Q429 203 447.5 190 Q466 177 487 168.5 Q508 160 530 160 Q575 160 602.5 187.5 Q630 215 630 260 Q630 305 602.5 332.5 Q575 360 530 360 Z " />
<glyph glyph-name="integral" unicode="&#x222b;" horiz-adv-x="660" d="M330 510 Q341 566 360 603 Q379 640 405 661.5 Q431 683 465 691.5 Q499 700 540 700 L600 700 L610 690 L590 590 L580 580 L550 580 Q528 580 514 576 Q500 572 491.5 563.5 Q483 555 478.5 542 Q474 529 470 510 L370 10 Q348 -103 299 -151.5 Q250 -200 160 -200 L100 -200 L90 -190 L110 -90 L120 -80 L150 -80 Q173 -80 186.5 -73 Q200 -66 208.5 -54 Q217 -42 221.5 -25.5 Q226 -9 230 10 L330 510 Z " />
<glyph glyph-name="approxequal" unicode="&#x2248;" horiz-adv-x="620" d="M40 310 Q40 348 49.5 380.5 Q59 413 80 437.5 Q101 462 133 476 Q165 490 210 490 Q251 490 282 476 Q313 462 337.5 445 Q362 428 381.5 414 Q401 400 420 400 Q435 400 447.5 410 Q460 420 460 450 L470 460 L570 460 L580 450 Q580 413 569 380 Q558 347 536.5 322.5 Q515 298 483 284 Q451 270 410 270 Q369 270 338 284 Q307 298 282.5 315 Q258 332 238.5 346 Q219 360 200 360 Q185 360 172.5 350 Q160 340 160 310 L150 300 L50 300 L40 310 Z M40 50 Q40 88 49.5 120.5 Q59 153 80 177.5 Q101 202 133 216 Q165 230 210 230 Q251 230 282 216 Q313 202 337.5 185 Q362 168 381.5 154 Q401 140 420 140 Q435 140 447.5 150 Q460 160 460 190 L470 200 L570 200 L580 190 Q580 153 569 120 Q558 87 536.5 62.5 Q515 38 483 24 Q451 10 410 10 Q369 10 338 24 Q307 38 282.5 55 Q258 72 238.5 86 Q219 100 200 100 Q185 100 172.5 90 Q160 80 160 50 L150 40 L50 40 L40 50 Z " />
<glyph glyph-name="notequal" unicode="&#x2260;" horiz-adv-x="580" d="M500 80 L270 80 L250 70 L230 30 L220 20 L170 20 L160 30 L160 50 L170 70 L170 80 L80 80 L70 90 L70 190 L80 200 L210 200 L230 210 L270 290 L270 300 L80 300 L70 310 L70 410 L80 420 L310 420 L330 430 L350 470 L360 480 L410 480 L420 470 L420 450 L410 430 L410 420 L500 420 L510 410 L510 310 L500 300 L370 300 L350 290 L310 210 L310 200 L500 200 L510 190 L510 90 L500 80 Z " />
<glyph glyph-name="lessequal" unicode="&#x2264;" horiz-adv-x="580" d="M500 0 L70 0 L60 10 L60 110 L70 120 L500 120 L510 110 L510 10 L500 0 Z M70 400 L340 500 L500 500 L510 490 L510 430 L500 420 L250 330 L250 320 L500 240 L510 230 L510 170 L500 160 L340 160 L70 260 L60 270 L60 390 L70 400 Z " />
<glyph glyph-name="greaterequal" unicode="&#x2265;" horiz-adv-x="580" d="M60 10 L60 110 L70 120 L500 120 L510 110 L510 10 L500 0 L70 0 L60 10 Z M510 390 L510 270 L500 260 L230 160 L70 160 L60 170 L60 230 L70 240 L320 320 L320 330 L70 420 L60 430 L60 490 L70 500 L230 500 L500 400 L510 390 Z " />
<glyph glyph-name="lozenge" unicode="&#x25ca;" horiz-adv-x="600" d="M550 290 L370 10 L360 0 L240 0 L230 10 L50 290 L50 410 L230 690 L240 700 L360 700 L370 690 L550 410 L550 290 Z M180 340 L290 160 L300 160 L420 340 L420 360 L300 540 L290 540 L180 360 L180 340 Z " />
<glyph glyph-name="uniFB00" unicode="&#xfb00;" horiz-adv-x="740" d="M380 690 L380 590 L370 580 L290 580 Q260 580 260 550 L260 510 L270 500 L450 500 L460 510 L460 550 Q460 591 474 619.5 Q488 648 511.5 666 Q535 684 565.5 692 Q596 700 630 700 L710 700 L720 690 L720 590 L710 580 L630 580 Q600 580 600 550 L600 510 L610 500 L700 500 L710 490 L710 390 L700 380 L610 380 L600 370 L600 10 L590 0 L470 0 L460 10 L460 370 L450 380 L270 380 L260 370 L260 10 L250 0 L130 0 L120 10 L120 370 L110 380 L40 380 L30 390 L30 490 L40 500 L110 500 L120 510 L120 550 Q120 591 134 619.5 Q148 648 171.5 666 Q195 684 225.5 692 Q256 700 290 700 L370 700 L380 690 Z " />
<glyph glyph-name="fi" unicode="&#xfb01;" horiz-adv-x="660" d="M590 580 L470 580 L460 590 L460 690 L470 700 L590 700 L600 690 L600 590 L590 580 Z M590 500 L600 490 L600 10 L590 0 L470 0 L460 10 L460 370 L450 380 L270 380 L260 370 L260 10 L250 0 L130 0 L120 10 L120 370 L110 380 L40 380 L30 390 L30 490 L40 500 L110 500 L120 510 L120 550 Q120 591 134 619.5 Q148 648 171.5 666 Q195 684 225.5 692 Q256 700 290 700 L370 700 L380 690 L380 590 L370 580 L290 580 Q260 580 260 550 L260 510 L270 500 L590 500 Z " />
<glyph glyph-name="fl" unicode="&#xfb02;" horiz-adv-x="660" d="M450 500 L460 510 L460 690 L470 700 L590 700 L600 690 L600 10 L590 0 L470 0 L460 10 L460 370 L450 380 L270 380 L260 370 L260 10 L250 0 L130 0 L120 10 L120 370 L110 380 L40 380 L30 390 L30 490 L40 500 L110 500 L120 510 L120 550 Q120 591 134 619.5 Q148 648 171.5 666 Q195 684 225.5 692 Q256 700 290 700 L370 700 L380 690 L380 590 L370 580 L290 580 Q260 580 260 550 L260 510 L270 500 L450 500 Z " />
<glyph glyph-name="uniFB03" unicode="&#xfb03;" horiz-adv-x="1000" d="M380 690 L380 590 L370 580 L290 580 Q260 580 260 550 L260 510 L270 500 L450 500 L460 510 L460 550 Q460 591 474 619.5 Q488 648 511.5 666 Q535 684 565.5 692 Q596 700 630 700 L710 700 L720 690 L720 590 L710 580 L630 580 Q600 580 600 550 L600 510 L610 500 L930 500 L940 490 L940 10 L930 0 L810 0 L800 10 L800 370 L790 380 L610 380 L600 370 L600 10 L590 0 L470 0 L460 10 L460 370 L450 380 L270 380 L260 370 L260 10 L250 0 L130 0 L120 10 L120 370 L110 380 L40 380 L30 390 L30 490 L40 500 L110 500 L120 510 L120 550 Q120 591 134 619.5 Q148 648 171.5 666 Q195 684 225.5 692 Q256 700 290 700 L370 700 L380 690 Z M930 580 L810 580 L800 590 L800 690 L810 700 L930 700 L940 690 L940 590 L930 580 Z " />
<glyph glyph-name="uniFB04" unicode="&#xfb04;" horiz-adv-x="1000" d="M380 690 L380 590 L370 580 L290 580 Q260 580 260 550 L260 510 L270 500 L450 500 L460 510 L460 550 Q460 591 474 619.5 Q488 648 511.5 666 Q535 684 565.5 692 Q596 700 630 700 L710 700 L720 690 L720 590 L710 580 L630 580 Q600 580 600 550 L600 510 L610 500 L790 500 L800 510 L800 690 L810 700 L930 700 L940 690 L940 10 L930 0 L810 0 L800 10 L800 370 L790 380 L610 380 L600 370 L600 10 L590 0 L470 0 L460 10 L460 370 L450 380 L270 380 L260 370 L260 10 L250 0 L130 0 L120 10 L120 370 L110 380 L40 380 L30 390 L30 490 L40 500 L110 500 L120 510 L120 550 Q120 591 134 619.5 Q148 648 171.5 666 Q195 684 225.5 692 Q256 700 290 700 L370 700 L380 690 Z " />
</font>
</svg>
